<mxfile modified="2021-03-14T20:26:55.897Z" host="app.diagrams.net" agent="5.0 (Windows NT 10.0; Win64; x64) AppleWebKit/537.36 (KHTML, like Gecko) Chrome/89.0.4389.86 Safari/537.36" etag="Fq6kTN9AGYrpHY6spNzI" version="14.4.8" type="github">
  <diagram id="Ht1M8jgEwFfnCIfOTk4-" name="Page-1">
    <mxGraphModel dx="1422" dy="926" grid="1" gridSize="10" guides="1" tooltips="1" connect="1" arrows="1" fold="1" page="1" pageScale="1" pageWidth="1169" pageHeight="827" math="0" shadow="0">
      <root>
        <mxCell id="0" />
        <mxCell id="1" parent="0" />
        <mxCell id="klSxirF_GQ1IDOV2wDru-1" value="Sign in - Creating Session Cookie" style="text;html=1;fillColor=none;align=left;verticalAlign=middle;whiteSpace=wrap;rounded=0;fontSize=30;fontStyle=1;horizontal=1;" parent="1" vertex="1">
          <mxGeometry x="40" y="10" width="490" height="30" as="geometry" />
        </mxCell>
        <mxCell id="klSxirF_GQ1IDOV2wDru-2" value="&lt;font size=&quot;1&quot;&gt;&lt;b style=&quot;font-size: 14px&quot;&gt;USER&lt;/b&gt;&lt;/font&gt;" style="verticalLabelPosition=bottom;html=1;verticalAlign=top;align=center;strokeColor=none;fillColor=#00BEF2;shape=mxgraph.azure.user;fontSize=20;" parent="1" vertex="1">
          <mxGeometry x="52" y="301.67999999999984" width="47.5" height="50" as="geometry" />
        </mxCell>
        <mxCell id="klSxirF_GQ1IDOV2wDru-10" value="&lt;font color=&quot;#000000&quot; style=&quot;font-size: 14px&quot;&gt;Trigger Lambda@Edge&lt;/font&gt;" style="edgeStyle=orthogonalEdgeStyle;rounded=1;orthogonalLoop=1;jettySize=auto;html=1;startArrow=none;startFill=0;endArrow=classicThin;endFill=1;strokeColor=#B3B3B3;strokeWidth=2;fontSize=15;fontColor=#B3B3B3;fontStyle=2;verticalAlign=middle;" parent="1" source="klSxirF_GQ1IDOV2wDru-3" target="klSxirF_GQ1IDOV2wDru-7" edge="1">
          <mxGeometry x="0.0437" y="-8" relative="1" as="geometry">
            <mxPoint as="offset" />
          </mxGeometry>
        </mxCell>
        <mxCell id="klSxirF_GQ1IDOV2wDru-31" style="edgeStyle=orthogonalEdgeStyle;rounded=0;orthogonalLoop=1;jettySize=auto;html=1;startArrow=none;startFill=0;endArrow=classicThin;endFill=1;strokeColor=#B3B3B3;strokeWidth=2;fontSize=15;fontColor=#FFFFFF;spacingTop=0;spacingLeft=0;jumpSize=6;exitX=0.5;exitY=0;exitDx=0;exitDy=0;exitPerimeter=0;" parent="1" source="klSxirF_GQ1IDOV2wDru-3" target="klSxirF_GQ1IDOV2wDru-30" edge="1">
          <mxGeometry relative="1" as="geometry">
            <mxPoint x="272" y="366.83" as="sourcePoint" />
          </mxGeometry>
        </mxCell>
        <mxCell id="klSxirF_GQ1IDOV2wDru-36" value="&lt;span style=&quot;color: rgb(0 , 0 , 0)&quot;&gt;&lt;font style=&quot;font-size: 14px&quot;&gt;Trigger Lambda@Edge&lt;/font&gt;&lt;/span&gt;" style="edgeLabel;html=1;align=center;verticalAlign=middle;resizable=0;points=[];fontSize=15;fontColor=#FFFFFF;fontStyle=2;horizontal=1;" parent="klSxirF_GQ1IDOV2wDru-31" vertex="1" connectable="0">
          <mxGeometry x="-0.1425" relative="1" as="geometry">
            <mxPoint y="-3.680000000000014" as="offset" />
          </mxGeometry>
        </mxCell>
        <mxCell id="klSxirF_GQ1IDOV2wDru-3" value="&lt;font style=&quot;font-size: 14px&quot;&gt;CLOUDFRONT&lt;/font&gt;" style="points=[[0,0,0],[0.25,0,0],[0.5,0,0],[0.75,0,0],[1,0,0],[0,1,0],[0.25,1,0],[0.5,1,0],[0.75,1,0],[1,1,0],[0,0.25,0],[0,0.5,0],[0,0.75,0],[1,0.25,0],[1,0.5,0],[1,0.75,0]];outlineConnect=0;fontColor=#232F3E;gradientColor=#945DF2;gradientDirection=north;fillColor=#5A30B5;strokeColor=#ffffff;dashed=0;verticalLabelPosition=bottom;verticalAlign=top;align=center;html=1;fontSize=12;fontStyle=1;aspect=fixed;shape=mxgraph.aws4.resourceIcon;resIcon=mxgraph.aws4.cloudfront;labelPosition=center;" parent="1" vertex="1">
          <mxGeometry x="232.5" y="287.67999999999984" width="78" height="78" as="geometry" />
        </mxCell>
        <mxCell id="klSxirF_GQ1IDOV2wDru-4" value="&lt;font size=&quot;1&quot;&gt;&lt;i style=&quot;font-size: 14px&quot;&gt;/login&lt;/i&gt;&lt;/font&gt;" style="endArrow=classicThin;fontSize=15;strokeWidth=2;rounded=1;strokeColor=#B3B3B3;verticalAlign=bottom;startArrow=none;startFill=0;endFill=1;labelPosition=center;verticalLabelPosition=top;align=center;spacing=2;html=1;" parent="1" target="klSxirF_GQ1IDOV2wDru-3" edge="1">
          <mxGeometry x="0.05" width="50" height="50" relative="1" as="geometry">
            <mxPoint x="100" y="328" as="sourcePoint" />
            <mxPoint x="202" y="331.65999999999997" as="targetPoint" />
            <mxPoint as="offset" />
          </mxGeometry>
        </mxCell>
        <mxCell id="klSxirF_GQ1IDOV2wDru-15" value="&lt;font style=&quot;font-size: 14px&quot;&gt;&lt;i&gt;Redirect to &lt;br&gt;Cognito login form&lt;/i&gt;&lt;/font&gt;" style="edgeStyle=orthogonalEdgeStyle;rounded=0;orthogonalLoop=1;jettySize=auto;html=1;startArrow=none;startFill=0;endArrow=classicThin;endFill=1;strokeColor=#B3B3B3;strokeWidth=2;fontSize=15;labelPosition=center;verticalLabelPosition=top;align=center;verticalAlign=bottom;" parent="1" source="klSxirF_GQ1IDOV2wDru-7" target="klSxirF_GQ1IDOV2wDru-12" edge="1">
          <mxGeometry relative="1" as="geometry">
            <Array as="points">
              <mxPoint x="253" y="584.83" />
              <mxPoint x="253" y="584.83" />
            </Array>
          </mxGeometry>
        </mxCell>
        <mxCell id="klSxirF_GQ1IDOV2wDru-7" value="&lt;font color=&quot;#000000&quot; style=&quot;font-size: 14px ; line-height: 100%&quot;&gt;login&lt;/font&gt;" style="outlineConnect=0;dashed=0;verticalLabelPosition=bottom;verticalAlign=top;align=center;html=1;shape=mxgraph.aws3.lambda_function;fillColor=#F58534;gradientColor=none;strokeColor=#000000;fontSize=15;fontColor=#B3B3B3;" parent="1" vertex="1">
          <mxGeometry x="237" y="548.33" width="69" height="72" as="geometry" />
        </mxCell>
        <mxCell id="klSxirF_GQ1IDOV2wDru-20" value="&lt;font style=&quot;font-size: 14px&quot;&gt;&lt;i&gt;Redirect to Google&lt;br&gt;authentication form&lt;/i&gt;&lt;/font&gt;" style="edgeStyle=orthogonalEdgeStyle;rounded=1;orthogonalLoop=1;jettySize=auto;html=1;startArrow=none;startFill=0;endArrow=classicThin;endFill=1;strokeColor=#B3B3B3;strokeWidth=2;fontSize=15;fontColor=#000000;" parent="1" source="klSxirF_GQ1IDOV2wDru-12" target="klSxirF_GQ1IDOV2wDru-19" edge="1">
          <mxGeometry relative="1" as="geometry">
            <mxPoint x="515" y="166.82999999999998" as="sourcePoint" />
          </mxGeometry>
        </mxCell>
        <mxCell id="klSxirF_GQ1IDOV2wDru-12" value="&lt;font color=&quot;#000000&quot; size=&quot;1&quot;&gt;&lt;b style=&quot;font-size: 14px&quot;&gt;COGNITO&lt;/b&gt;&lt;/font&gt;" style="outlineConnect=0;dashed=0;verticalLabelPosition=bottom;verticalAlign=top;align=center;html=1;shape=mxgraph.aws3.cognito;fillColor=#AD688B;gradientColor=none;strokeColor=#000000;fontSize=15;fontColor=#B3B3B3;spacing=0;" parent="1" vertex="1">
          <mxGeometry x="545.75" y="537.83" width="76.5" height="93" as="geometry" />
        </mxCell>
        <mxCell id="klSxirF_GQ1IDOV2wDru-16" value="" style="strokeWidth=2;html=1;shape=mxgraph.flowchart.annotation_2;align=left;labelPosition=right;pointerEvents=1;fontSize=15;fontColor=#000000;direction=south;verticalAlign=top;" parent="1" vertex="1">
          <mxGeometry x="335.19" y="620" width="180" height="50" as="geometry" />
        </mxCell>
        <mxCell id="klSxirF_GQ1IDOV2wDru-17" value="" style="shape=image;verticalLabelPosition=bottom;labelBackgroundColor=#ffffff;verticalAlign=top;aspect=fixed;imageAspect=0;image=data:image/png,iVBORw0KGgoAAAANSUhEUgAAAXUAAADbCAYAAACSnAHiAAAgAElEQVR4Ae2d7a8ex1nG/Y/0I1/gT/AHPiBQ+wWIiopU0qRJk6ZN0zixT+I4L44Tx459/BbVslQQUB23H0rfJHBaJOyqogXaqCCwD1C1KihtKI0hKS2249QkGXTN7DVzz+zu876b5+xekVa7z+7szD3XXPPb+5lnfbLrzJkzrmk7ffq0s9upU6dcuZ08edJpkwbygDwgDyzugZKr+GzZi+MmRuPcCy+8UNt2lYXLymyD5cCdOHHCtW2bm5tOmzSQB+QBeWCzlZPgZ8lVy9ySxyWvm8CeQd1WYCtmoxbg5UAdP37caZMG8oA8IA9M90DJT8tW8tYy2LJ5Gtgj1HmTrYiVs0EGwkE7duyYs9vzzz/vtEkDeUAekAfaPWCZiWPylHwlb8lfy2RyehLYPdRZkDezMlaOxtgwA+KgHT161HE7cuSI0yYN5AF5QB5o9wB5iT05Sq6Ss2Au+Usek8/kdRvYd7EAb2AFqLCEOQNAMBy05557znE7fPiws9uzzz7rtEkDeUAeGLMHLBNxTF5iT46WgC/hTi6T0+R2CXb8cOqhzoK4kU8HAh1PEMC8BDmC40A988wzDtuhQ4dq29NPP+20SQN5QB4YoweamEhekp8EfQl4Ls2UWTt53Qb2XSwwCejb29tOmzSQB+QBeaA/DyCZXgTsHupM7e2Si83ONZD9DaS0ltbygDwADyBz57IMlmOYsZPXSMibsvUI9Tag46uBTCaTyQPygDzQrwfA3klg5ypLCfZdXHaxa+hcP+e6uQaz38GU3tJbHpAHsOZuwV4uxYDdTdl6hDrSe/4oiqcDgY6FfhlMBpMH5AF5oF8PgL0W7HaNHSsrhHoJ9l1Nyy541QaVodKDBw8K6vqhWB6QB+SBnj0A9hLsYHLb+noj1Jml22UXvHaDSp988kkNZs+DqYyo34xIekvvdfQA2AsGg8VNyzBN2TreW9/FtXSk9lh2wRMBleCd0qeeeso9/vjjgrqgLg/IA/JAzx4Ae8FgsBhM5j9WAqvLt2Fstu6hXq6lc9nliSeecAcOHNBg9jyY65g1KCZls/JAvx4Ae8FgLsMwW+faun3FMYO6XXrhWrrN0vfv3y+oC+rygDwgD/TsAbDXZuv4nZNr63wTxi7B8NXGXYA6l17wJLBr6XhSPProoxrMngdTGVG/GZH0lt7r6AGwFwxuWlu3SzDlWzC77NIL33jhWjqeFBsbG4K6oC4PyAPyQM8eAHttts43YfDb56QlGA91vPXStPSCJ8W+ffs0mD0P5jpmDYpJ2aw80K8HwF4weNISTNO6egZ1vvWCdJ9LL3v37hXUBXV5QB6QB3r2ANhrl2DsWzBIxLHKMhPU8UsrfnF97LHH3COPPOIefvhhDWbPg6mMqN+MSHpL73X0ANgLBoPFfAuGrzYS6vhNtPyxdJf9kdS+ysj1dEFdhl9Hwysm+XLoHgB7ua5OqIPR9tXGmaBe/kj60EMPKVNXpi4PyAPyQM8eAHsJda6rLw11LNTv2bNHg9nzYA49A1H/lGXLA9M9APaCweUbMAtn6nzzRVCfLr4MKo3kAXlg1R4g1O0bME2ZOn4s5bvq+AdIcU3dvqNu33wR1GXWVZtV9clT8sB0D4C99g0YLI0D6mA131XHmrqFOv5cQAZ1/nkAQX264DKlNJIH5IEuPdAEdTB6bqiX76g/+OCDWlPXmro8IA/IAz17AOy1mTrYLKj3PAhdPrVVt7JCeWBcHhDUBXBlUvKAPDAgD6wc6viXTEj9tfwyruxA2aDGWx5YDw8Q6mAx/1rjUssvgvp6DKwmmMZBHhinBwT1AX3t0iQe5yTWuGvcrQcEdUFd66nygDwwIA8I6gMaTPu01rGyN3lgnB4Q1AV1ZWnygDwwIA8I6gMaTGVm48zMNO4ad+sBQV1QV5YmD8gDA/KAoD6gwbRPax0re5MHxukBQV1QV5YmD8gDA/KAoD6gwVRmNs7MTOOucbceENQFdWVp8oA8MCAPCOoDGkz7tNaxsjd5YJweENQFdWVp8oA8MCAPCOoDGkxlZuPMzDTuGnfrAUFdUFeWJg/IAwPygKA+oMG0T2sdK3uTB8bpAUFdUFeWJg/IAwPygKA+oMFUZjbOzEzjrnG3HhDUBXVlafKAPDAgDwjqAxpM+7TWsbI3eWCcHhDUBXVlafKAPDAgDwjqAxpMZWbjzMw07hp36wFBXVBXliYPyAMD8oCgPqDBtE9rHSt7kwfG6QFBXVBXliYPyAMD8kCnUHf6TwpIASkgBXpVQFDvVW41JgWkgBToVgFBvVt9VbsUkAJSoFcFBPVe5VZjUkAKSIFuFRDUu9VXtUsBKSAFelVAUO9VbjUmBaSAFOhWAUG9W31VuxSQAlKgVwUE9V7lVmNSQApIgW4VENS71Ve1SwEpIAV6VUBQ71VuNSYFpIAU6FYBQb1bfVW7FJACUqBXBQT1XuVWY1JACkiBbhUQ1LvVV7VLASkgBXpVQFDvVW41JgWkgBToVgFBvVt9VbsUkAJSoFcFBPVe5VZjUkAKSIFuFRDUu9VXtUsBKSAFelVAUO9VbjUmBaSAFOhWAUG9W31VuxSQAlKgVwUE9V7lVmNSQApIgW4VENS71Ve1SwEpIAV6VUBQ71VuNSYFpIAU6FYBQb1bfVW7FJACUqBXBQT1XuVWY1JACkiBbhUQ1LvVV7VLASkgBXpVQFDvVW41JgWkgBToVgFBvVt9VbsUkAJSoFcFBPVe5VZjUkAKSIFuFRDUu9VXtUsBKSAFelVg/aF+9YLb2L3b7bbbvgvu9UymbXd292539nJ2soMPfbVjQ6+3uX1uw124yjL167yivVVgXp1edxf27XYbL+ZOszUO7hhz7dz24Lo1tg6tN9Qvn/UwL2G9fQ6QP+v6t9+8YOjATl4TQb0DZYsqxwb10N/dgnrhg533ca2h7uHdaLIA1/6zKEF951l80YgF9UWV033vrgJrDPV5MocG2FZZfli22XAXXkTWnzLc11/ccLv3XXDb2MelnXS9eVjKdjjxt/1X9VhPbXko1ebbLb5l1M+xXnz1T22GcmkpKjzUeD3sYwyND8MqjmpJq/wGVIujXPrK+mVjTP3zD+JYLpQ5+2JaQivbjHdm47Xbj0258BG+oaX+N9XVXoY6xRadK9s0/nCuuX/mbn9YtgdPlXE3j1uqabnrzXHm48C+t3mkOF/4M0Wqo52gwBpD3blk9mlLLTRtJXm5RBEnb4J2rDvCL0yOpkmZBrJop5r4AGkETAXC1m8R/nqKg/CwDxwL8vzYVSCy93NCmnNVf2NMqQPVUdXX2HecLs5VdaR+lPqEz+l6qDqHSXVPBstaMA19KmJhbBY2tT6W8TnnsodXMXb+fqMZHp/Zsl5z/2z0eV9xpRoLo2teZypD3Wa7buKs+as5zjy2WTxSam57quOdpMBaQx1CRvjGbLrpxys7YSeY3MAl1Fs8LBomej6Yth0fXcjQzSTG2XxC5TVw4nNSB/BsuI195sHg42BsRZu1GMP1WJ9vbvoErfU/A2DL/Q1l8nbLvrfUU0hSi6W4HjJqA7bqeqazj61eJlWV6+jvLcYtb6fZR2318XwWk/mWxev5Po8pv1Y+lNLVXK/mOJviyMeqHJvyc2pPRztLgbWHepKzMl2Eu53AZnJk4El35xO2eliUX5VrwDT3+0PTjv88y4Qq66jAR6CgzXPb4UFQncuBU7RZi7G4buKa+KNXoVMOilBnDgFUbCf+LH1vLlNTpIol+8ZjCuWxmQtGi9YysXiTTuGi17vmqxlj91WEuuPSF31l4oth2INFr2dj1xxnE9Tzb27hvuSR8rMNVMc7SYEdBHUjKyFAMNqMKDO8uaeYQB4CnHwsVpTh6bQvwTDLhEp3xyPfTsjEMfn8ZMM5H0+oM03Aos1ajMV138hsEzQ9PMryTXWiYlsuHJfgz2HSXCbqkB2ENiMYy29V5VjhXqNF43g21B919fdyfb5KEEx97GvZP1ul7ysfBlV8Wf99ffzGZe+sjhe9nnm8WeMsDjs/Yhh2LHGy/BwL6mCHKbAzoV5b4jAQygxvRiObsO9ups4llwtXMZEqoPi4N9yFy/hRseVbCLpT9IPLORFWvsszTlBCpaZZ0LMOtFBvOG+Pk845TJrLpNJtRwR8AGJrFs744zLdBIBmYGvRJ9N2Suw1zUJfsv5n9TX0ddHr9Ir/twrNcWZxZH1nHKUG5WeW036nKbC+UG+ZNBTYm7YpU68yjhJIvryBZWNmN22S1SbHLBOKEdt9dd+5s24jZqAVSPeFt3LSGxTmgYUqajEW130zs07Q6t5zeDPIArHl/mxMmspU52KfwudyLKwSrccWXLU+h7sycLWUSfVbneyxKeF/KOUDdUrsvj2rGeoJ9cYf2zO9UjvxaMHr+UNulnFo6m95X/k5RqmDHabA+kKd2bgBcdTWTnh/sjBtOcH95/wfLL27UDc/AMcHE9++KH8IntK32oMGgsw+QcPDbrdf14/64qDSLAG5qjMCm/EmsAXY2NcRwz2pjqyF+CGHVDidAZv9sQ+eKr70DaUeHyEb2rc6NpSNHuEP1lNir4Bs+xa1NHGGc0mjcmxmu84HTfrxtN5uaqM+DrbvlL3SIPqv/Mxy2u80BdYa6l5MM9nieqsBSxC8wbTZfWfdtv9cGL+sx5cxE6g2mmU7zRM/B1KtknCiii9BiaAv229u02vhJ2R5HdXPMUEb4ogRV+CKukcAsETVDteVz22Ht5Wirs368G67jyBiXQaMLJegiQd0qVMolZexD8hSp/A59g3tZaCeIfZKu1gH+1/EVutboeO8161nQq+njUPZd9xV3WNjif1p1pbjoP16K7D+UF+Rfn7iRNisqNIBVBOAkh52A+iSuiAFRq3AAKFeZWA2A6mWKOxX1lGPeuz8DNloLKsDKSAFdoICA4R6WneMX4t326/hO2FYuo8xLlNkD7/u21ULUkAKdKvAMKHerWaqXQpIASmwtgoI6ms7NApMCkgBKTC/AoL6/JrpDikgBaTA2iogqK/t0CgwKSAFpMD8Cgjq82umO6SAFJACa6uAoL62Q6PApIAUkALzKyCoz6+Z7pACUkAKrK0CgvraDo0CkwJSQArMr4CgPr9mukMKSAEpsLYKCOprOzQKTApIASkwvwKC+vya6Q4pIAWkwNoqIKiv7dAoMCkgBaTA/AoI6vNrpjukgBSQAmurwNpC/euXb7k7z1x3tx25pk0ayAPywCg8AOaBfcv8t7ZQF9D1MNMDXR4YowfAvmX+W1uoczDPXnjT/eLGO8v0cSX3IgbEwri0F3DkAXmgKw8sA621h/o6AJ0CI5auBlH1ChDygDxAD5A5i+zXHuqLdKrLeyi69pqA8oA80JUHlmGYoD6nel0NouoVIOQBeYAemBNLWXFBPZNj+geKrr0moDwgD3Tlgekkai8hqLdr03ilq0FUvQKEPCAP0AON8JnxpKA+o1AsRtG11wSUB+SBrjxA3iyyF9TnVK2rQVS9AoQ8IA/QA3NiKSsuqGdyTP9A0bXXBJQH5IGuPDCdRO0lBgv1m//49+7qwf3uJ/fe7n78/ve5H9/2Xvdfhw64n3/+c+6Nv3+pXZEpV7oaRNUrQMgD8gA9MAVDEy8PEuqvnT7mXv6t3RO3VzcecL/84Q8mitN0kaJrrwkoD8gDXXmgiT2znhsc1AHraUDn9Z/cd6e79cqPZtXKl+tqEFWvACEPyAP0wFxQKgoPCupYZiGwuX91/x732qmj7mef/pT76Z774vVXPvi77q3XXyvkmP6Roi+9v/x20djb7uIK/xLfZ15+x7nXblV/1uCWe8U598rl9Z00Pt6bb7nPQANow+Mj11x2bR6Naho7d/3l/v5+z8Jxz9NHlR3kn+4o4DDXx8FA/b+PPROBDaBjLf2Nb/9NTYw3v/cvDmXfuXmzdm2WE0vD/Mg1d9E/S3KIewC4d9yVi6sBr68vQn01da6i7zPVsQKoN2l825HwcEsPu251EdS71XcmL+3Qh94sLGorMwiov/U/33E/+6PfiVAH0G+9/O9tfV7q/NJG8tljDnTW6UFkQZxlmjnwUfb6y2/5DJwdYiYeHhDVWZ/x5pn6pHsJPtaF2OpwquDIhm3MdhLV+prHwbqRPcc2sj4HncK1t90r5jk8MeOutWvgcvEtd91Z/d90V0y9deDnfa21a+O9+Za7ggd2pUfsEzWxZdf8mxM9qb3xDsexhz2n1iL7QUD9zX9+0N249B73iy/+qvuPu37bXfvqny+ixUz3LGvyGrjbDOIBYEBefPb1mMzeA8TAyn+OsM1hOvnevCzBm5ZDyusBijXY+X6hbNkHuwSCe8P1DIDoa7n8YiFYaFGOSXhozbLMUgE96lR+Dn1NfSs++weEWdbycbVA3V8zDxN/r9GmzQc6P8jlldKz5eeZYNRSaBBQv/nSez3UAfYb3/iVxq4+9dk33LSt8cbiZCn+fJ8nAdBmBM3l7APBHvsYCkhMhXoE2TV3W3ZvCe08U8/rrWL29xtgGRBZwOLe66+97a4T2LivOp4Kdd4THxYGpqa9244E7ew3jdYxKkGLeowWWUxsw9xT1yJ/KKT7m2Oq3289oOPWceNYDHhfYGeuj4OA+o2//rUI9Te+85uNAgDok0xyz6dm+7+NTKpj+rVmWNfvq4MVZSwE3i2o+3YbFW6GeooZfUdmir6FsrjGLNiXI7gBTh6z3+Zz0xJR0rAJoEFPGzagn7UZAYGyIYOuaYwy5gFmH1hs396T6q+3H2OxD9cYg4BOPce6j/5Y4GCAUP+NRhmmQf33j11rvK88uazJ7KRvrytAoMw2PSQqCNTqMRkm6rVlSwhOvrfedoJT9SPvPCCKEES9AeZoH327+FpafrBtTH/7pR6j1RL182Fhz4fjdG/WZgQqrncD9XI867EJ5tIkeKDkzjyfBwH1bPnl0nsa+9+29EITPfDpG433lSdZfuG9+fpe1pEg05zRWxjbY19PT1BPMc4KoCpDf/nt7AdE/yOvyb6zepfK1KtXIs3vC7nOCer+4VGWMzpmMRH6Zvz89ewBF8at/kNp83jmcc2qp8qNQbeSO/N8HgTUf/mDw+GH0r/9dffcX97hvvbDv5qqwc+uveM+cCxNkGNftK9AtN++CkN5IBcw8YCY9GOgh0nKbLuDeg4mZvlpOSRA0WbCjfAjBOMrnCZ79n0xn/nNgpBfFuqxzXJJqOpb1Lnsa/m57Gvx2T8AzNp+1a861PmgSePHtX+r4yq8pTrSnN7JWrQTaPqVQUD97f/ddv/20gfd+z7/fr/d97U97kc///HE3p/48s1sjf2r3701sTwvrsoohDjrdQXkfTuEhC9kgdCwDGIyTH9vBZxQr8lOCTybYbbei4bfdhcLyIZ15RR5An7LhPL9sPHn8SDe/MEQrrtqGSS/hjbq9zeOS6ZfFa/tt3/wJND7ErXrjCXcX4OwbaN6pZFlyrjLMWe5xtjNQ1HXW3w1YI3M7Jr7cBBQR683v/1ChDrgDrB/5yffrQny6vWr7rEvvZQBfe8f33DXb75TK9t0QhNsfBNsnjHHNyjBWh6ZxzNNZZvYM+u5wUAdHf7AV+7MwA64H/jGIXfmpXPuTy9/1h37u9Puti/9gS/z4Je+EMH+0vf/b1a94j1NA6Fz45rMZSZuX4eUF8blhVWP98xAaig4KKijf49+/WAN7FyWKff3/8VR9yffnO8vNa568FTfTp78xdKN/YdWA14akGe792wDq2c+NTioo+dnv/uHMSMvQc7Ph7551H3vte/PLBQLytDdG1oaS+Oxe4C8WWQ/SKhDiP+89qr73PafucPf2nR3v3i/+70v3+Ge/dZx94V//Yr7h5/+0yJa+XvGbjb1X8CVB7r3wMKAcs4NFurLiDLpXhm6e0NLY2k8dg9MYtC0a4L6NIWK62M3m/ov4MoD3XugwM5cHwX1ueRyevtFPwDKA/JA5x6YE0tZcUE9k2P6B2Up3Wcp0lgaj90D00nUXkJQb9em8crYzab+C7jyQPceaITPjCcF9RmFYjEZuntDS2NpPHYPkDeL7AX1OVUbu9nUfwFXHujeA3NiKSu+9lD/xY3Z/iZL1quOPiAWGbp7Q0tjaTx2DyyDsLWH+tkLb7p1ADtiQCxjN5v6L+DKA917YJBQv/PMdQFUr47JA/LA6DwA9i3z39pm6l+/fMsJ7N1nBMq6pLE8sD4eAPPAvmX+W1uoL9Mp3SsFpIAUGKsCgvpYR179lgJSYJAKCOqDHFZ1SgpIgbEqIKiPdeTVbykgBQapgKA+yGFVp6SAFBirAoL6WEde/ZYCUmCQCgjqgxxWdUoKSIGxKiCoj3Xk1W8pIAUGqYCgPshhVaekgBQYqwKC+lhHXv2WAlJgkAoI6oMcVnVKCkiBsSogqI915NVvKSAFBqmAoD7IYVWnpIAUGKsCgvpYR179lgJSYJAKCOqDHFZ1SgpIgbEqIKiPdeTVbykgBQapgKA+yGFVp6SAFBirAoL6WEde/ZYCUmCQCgjqgxxWdUoKSIGxKiCoj3Xk1W8pIAUGqYCgPshhVaekgBQYqwKC+lhHXv2WAlJgkAqsLdSvnN9wmxevJtG3t9zGxobb2uapq+7Spv3M833sr7itjS13BU1dveQ2edxB01cvbrqN876lrPa281mhd+1DGBuMVzaG71o871LDK/UGPLfpLmFKmHq9DzYvOTNTFu5sbc4tUpOfp9XciPevcK5WHNjYOOs+RT1iOxMOjGYTSg3i0tpCvYQWDLd1fstAwpi896EwUG808eoCQr+boN52fnUtL1HTiCbQRJW68oapd3VQD+Bd+iFsYpuozYIXF37wdBzXgt3p5La1hbrPRmIGUkEUsOC58nhjw2fyGw1Zc/aAwODaOmJ5tFHWUWUY58O3hPRN4aq7dB7ZkbmnyKZDm5f8twncZ8Hsr1VtpUlk6uI3Em/EEFP6huKcazjfXKf1TMqefTzUwOux5bY2q75X57PJ0wppW2eVRVpN2IYPo9KS37TsONh74niE8lGfWL6qx48J2zT9NNqk8WJ2m/cRd/mHYzUWSeOmfrXF41wY663kH+8FM5747DWkv1ripl6Z3qgH5e2+quf8ldD2phk/60OrBc/7c8ykKy23qz54HVpiqzSymlrPxTll6g/XUV/RzvlSqzB+cSyq/qTxCNdte1vb1CPXH36J9SDmprEwdhni4fpC3cEIlcFgcj846RwGOEz4NLgYID/wNDBHzEySqxe3fMbvv8bCgH4iBdMRIL4Oc55ATudZMQHLSZLO+7Lx6yFirJaKjOldBTOYN4s7xlVBp+wPYcTzLXWmaCDMFXclfkc3mvl7OZGLOKv6s9hMpX7yNMVg9DbFfR+pMe4Nx5O1Z3n/IGsYE1s/jq9sp6WqFHfeRmzb6mZibu5XXkeKh0C0y3GVnqb+2GabR70X0n34VuqhFuMqxyy0l/nMlzVzJvrPxG5icn6OcQnTlClEbdbUxGPrYf3Y8yFlrod4J2vFB2AJdT++0Tep/XqdnI+pTEiEeL7o4MA+rjHUA9AIPE5uTA6c454G8NlnzCbKwePgwrhb7sp2mDAwQ6iX16vRjROpMHpm1KosTVwYwxuNwKsgjLbaztt+WDNngDFt2POtdZry4TD0J2iVAJK+3YTroX1oEnSMWmf12bK4YDSM+mU3hGw1grlq396H4vHeNu2L80UT/qMfk5TNZrGZ8qVu4VJbv4p2jRd8PRFgRgfrjRgT+20C8Yep3SvnN92l7UtuC78p4T7vo+Z6J7YdYzJJg43JwJaA5zwrowtQtJqabzmmnVTO9jP1rS1e62fGYucB40G5cs7mdYa2vMfN/BPUn3bPPvusO3LkiHv++efd8ePH3ebmpjt58qQ7deqU33bhAgqg4NNPP+2efPJJd+DAAffII4+4vXv3Ojwtlv5vG2voV1LGjgrjuQrcEQKTWwtguuK2MNC45zyWRmg8M2FQTayzfSLH1rJJEs+2wtsb0JgtmbS6N07+BFR+U0i15xn81DpxY1VvAnbV9yz+NPlwS9QsLonYCPKyGTijfrY8jnFPAFZcRlsp1ENMzBCTLsX4VmGl6zbOtn6F8xF60K2Cma8ngs20lWkb2vBlkXzE8qltXPN+59Le5iV3qUpiMn1NvRPbNm34cvCduTeHZ9G/GFabpixQXeeP4qwf+9h+KAPvtcULryWfp/Jshfs0X5LOeZ2xZFwO855nXLw84P1aZ+oBvlgvNL/ueyBjCYVfszG4fHqXpkkjh4HHkylMSqyJb5q3VoKJOGGTSfLzfkLYWFB9i1l8HRGGIca6udJ5Hx/f9jFQzM2e+pOdz2JIdabSVZyM3ZefDnXov7XZ/PYN6m6NwcSfxYAPeCjHccCJXOOkfV6/b8vHn5fP6w/XwoMrHAdQ5PfEuK1uPuagSbxexctvMvZ8iqf0HPSva4vyIa5iLGwHEA+0qbyNjB1a+aVC+/AzcVu9MvCb/mQa2/P+mHHlGqWw2jRFP9M3YvTPzx8TWzxnvhG0xmvuC0kV40qR4CjVmXTO6kSf6HPTbts8zWsfxqf1hnox4YPkDearzBmWFZLRsiHKDJwDI5QLMMzrKNryk848YHAj244PmSpKvIqICcolIXPdm7A6zwcJJ15oPxmaZSMQqk6V5/kZ96c6q8J+Z/rnv6VUbdjJZCeBv8dOaFsXj8P1EDPhQ01axsHCidX4c/wR0dznYwvnscYcMr9iTGId4SDpsOkuXeQ9uGb6b2CUylvdWvrVGM8EqGfesO0brbL4QxmOn48tAgrXqvtMva1lUK+Jt8yC/ZgVP0gCmBtsw8SVNCo0tfUzTn+uGkMfJ2JOPpoUb2gf32LCD7+l5/0o8uFhfJTXWY1HOe+MZqZrgzxcc6jvXM1Lo+3InviJYCC7ik5g0hMAq6hPdQxPgfgwGF7X+uiRoN6Ryjse6lUWxqxxFTJ5TfgW0CoqVB3DUdPkp8IAAAZBSURBVMBm/a3fNofT3S57Iqh3qa7qlgJSQAr0rICg3rPgak4KSAEp0KUCgnqX6qpuKSAFpEDPCgjqPQuu5qSAFJACXSqwcqg/+uijq/vHR132XHVLASkgBQaoAKEOFuMfhOIfhuIfiC78L0oF9QG6RF2SAlJgxyggqO+YoVKgUkAKSIHpCqwM6k899ZRP9Zmp79mzZ3rrKiEFpIAUkAIrVQDsxd/f4vIL2Dz38suhQ4ecoL7ScVFlUkAKSIGFFGiCOhg985r64cOHHaH++OOP+6fDvn37nDL1hcZDN0kBKSAFllIA7AWDkamDyUi4wWiwuu1P754+fdrFP71bQn3//v2+QkF9qXHRzVJACkiBhRQg1MHiSVA/ceJE/HvqU6GOvwD30EMPLRSQbpICUkAKSIHFFQB7weCloX7w4EH3xBNP+IpQ4cMPP7x4VLpTCkgBKSAFFlIA7CXUwWSwuWn5pZapHzt2zB09etQ999xz7plnnvE3ooLHHnvM/9+PBPWFxkM3SQEpIAWWUgDsxf+BDiwm1MFosBrMBrvxv7ObCnX7v7Tja41LRaabpYAUkAJSYG4F7OuM/NekJdTxf9SaCHX+f0rxK6t9A2buaHSDFJACUkAKLKVA+eYL31G3mXor1O3/fNq+1ogFeqzp6D8pIAWkgBToVwGup9s3X+w76lh+aYQ61mQIdbzWyHV1pPv4IzJYgtF/UkAKSAEp0K8C/JekYDF+JAWbJ72jfurUKedfaQTU7Y+l5RIMs3Ws7+C9yQceeMDdf//97mMf+5j76Ec/6u655x539913u7vuust9+MMfdnfeeae744473Ic+9KG43X777U6bNJAH5IExecAyEEwEG8FIsBLMBDvBULAUTAVbwViwtszSm5Zemn4k9VBH+g6o22wdSzB8tZHZOhrBr7El2O+77z537733+gA/8pGPRMAT8ugEYY9OaZMG8oA8MHQPkHuEOEEORgLmYCbYWQKdrzEyS+dbL+WrjG1LLxHqdgmGrzbiycAfTPFKDRrBwj3B/slPftJ94hOfiFk7AsRTh4BH4NjQibYNTytt0kAekAd2sgfa+EaAk4VgIxhpYQ6GgqVIlsFW/jgK5nItHSzmWy/lnwco33zxUMdJuwSDm8q1dVROsCNjx9cD/Gsn/GlIBMQlmY9//OMOG54+2BC83dAhbdJAHpAHhuwByzwCHDwkH7nUAnaCoWApl1yQPBPoTWvpbe+ncz39zJkzbhegjiUYZuv8h0hYW+cyDCovwc6sHQHhKWMBD8jjCcQNndAmDeQBeWBMHiD/sAcTsRHkYCbYyewcyXIT0MFgsJivMWKZHKxueusFWbqH+smTJ/3L68zW7dp6E9ixxo4fTxEAAgHc8ZRBcNgIeQTNDcDXJg3kAXlgTB4g/7gnxMFJMBPsJMzBVLAVyTMzdALdvvGCtXSw2i67MEuvQZ3ZOt+E4TKMBTvW2LFwj4Yt3AF4/HNWBEjQE/YIXps0kAfkgbF6ACwkwMFHsBLMxGZhDraCsfwbL2AvgW6XXSZl6T5TB+WZrRPsyNZRiQU7FuqxYI8G0TCXZAh4rAMhQG4MutyjQ9qkgTwgDwzRAyXv+JlcxB6sZFbOzJww54+iJdDbll3KLD2D+iSwYz2HP57iK4GFOwGPpwyzeARK2CN4bdJAHpAHxuoB8hB7chJJMdhpYQ628h8YgblIqpFcNwEdvG4CeoS6zdbtD6d8f51ZO+GOpwgaJ+AJeWbxDJZ7dECbNJAH5IExeYD8s3swEhuYiY0gZ2Zewpxr6FxymbSWDqB7qGNxHVCfFex4eli4E/CEPIK0G4PXPgyidJAO8sB4PGBZyGOwEhvYWcLcZueLAD1CvQR7uRRj34yx6+0EPCBP0GOZhhuD1j4MnnSQDvLA+DxAHnJPXmIPhlqQg6+EefnqIpdc2pZdAPQXXnjB7cIBoN4GdrscQ7hzWYaAx/IMl2gYpPZhsKSDdJAH5AHrAfISezCUIG+COZdbZgF6BvUmsHM5hlk74c43ZCzgEYwFPQPVPgyYdJAO8oA8QA+Ql9yDpczKy7VzC/NJGTqBHjN1nLBgt1l7E9wt4BGEBT0D1D4MlHSQDvKAPFB6gNzkHkzlBpC3wRxsJq/tHjDn9v99YHv254xVjAAAAABJRU5ErkJggg==;" parent="1" vertex="1">
          <mxGeometry x="324" y="680" width="204.38" height="120" as="geometry" />
        </mxCell>
        <mxCell id="klSxirF_GQ1IDOV2wDru-23" style="edgeStyle=orthogonalEdgeStyle;rounded=1;orthogonalLoop=1;jettySize=auto;html=1;startArrow=none;startFill=0;endArrow=classicThin;endFill=1;strokeColor=#B3B3B3;strokeWidth=2;fontSize=15;fontColor=#000000;labelPosition=center;verticalLabelPosition=top;align=center;verticalAlign=bottom;" parent="1" source="klSxirF_GQ1IDOV2wDru-19" target="klSxirF_GQ1IDOV2wDru-3" edge="1">
          <mxGeometry relative="1" as="geometry" />
        </mxCell>
        <mxCell id="klSxirF_GQ1IDOV2wDru-24" value="&lt;font size=&quot;1&quot;&gt;&lt;i style=&quot;font-size: 14px&quot;&gt;/signin?code=XYZ&lt;/i&gt;&lt;/font&gt;" style="edgeLabel;html=1;align=center;verticalAlign=bottom;resizable=0;points=[];fontSize=15;fontColor=#000000;labelPosition=center;verticalLabelPosition=top;spacing=0;" parent="klSxirF_GQ1IDOV2wDru-23" vertex="1" connectable="0">
          <mxGeometry x="-0.2937" relative="1" as="geometry">
            <mxPoint x="-55" y="-3.68" as="offset" />
          </mxGeometry>
        </mxCell>
        <mxCell id="klSxirF_GQ1IDOV2wDru-19" value="" style="dashed=0;outlineConnect=0;html=1;align=center;labelPosition=center;verticalLabelPosition=bottom;verticalAlign=top;shape=mxgraph.weblogos.google;labelBackgroundColor=none;strokeColor=#000000;fontSize=15;fontColor=#000000;" parent="1" vertex="1">
          <mxGeometry x="550" y="289.65999999999985" width="68" height="74.04" as="geometry" />
        </mxCell>
        <mxCell id="klSxirF_GQ1IDOV2wDru-21" value="" style="shape=image;verticalLabelPosition=bottom;labelBackgroundColor=#ffffff;verticalAlign=top;aspect=fixed;imageAspect=0;image=data:image/png,iVBORw0KGgoAAAANSUhEUgAAAd8AAAI4CAYAAAArqeP/AAAgAElEQVR4Aey9h5cd1Zmv7X/kW2tmLc+6E+7cmbmTrmecxsZmbAYbG0dsMtgiiqCEMkIIIUBISCCEQAgECASSQCIKkUVQICiDcg4ttXKrld9vPVv9HnaXTqw+3eec6t9eq7qqq3Z83n32r3aoqm+YnAiIgAiIgAiIQJcS+EaXpqbEREAEREAEREAETOKrSiACIiACIiACXUxA4tvFwJWcCIiACIiACEh8VQdEQAREQAREoIsJSHy7GLiSEwEREAEREAGJr+qACIiACIiACHQxgQ6Lb2vrUdvV1GwbN22zNes22uq12sRAdUB1QHVAdaBx6wBahqahbWhcZ7gOiS8Z27Bxq+3dd8COHTtup0+f7ow8Kk4REAEREAER6DICaBmahrahcWhdtV1q8d26fZftatojwa22RRSfCIiACIhA3RBAiNE6NK+aLpX4chdAZuREQAREQAREoDsQQPOq2QOuWHwZ/6YbriHm7lDdVEYREAEREAEIoHloX7XmgCsWX5SfcXA5ERABERABEehOBNC+avV+KxZfVoAxES0nAiIgAiIgAt2JANqHBlbDVSy+LMHWkHM10CsOERABERCBRiKA9qGB1XAViy/PrsmJgAiIgAiIQHckUC0NlPh2x9qjMouACIiACKQiIPFNhU2BREAEREAERCA9gcyJb+uSz6zlo/ft0NxX7dja1enJKKQIiIAIiIAIdBKBzIhvy4fv29aLf2Ubf/yf7TbOcU1OBERABERABOqFQCbEt3nCmHaCmxTgzb84107s3N6pzDdu2mxs1Xatra22dNlyY99ZrlQaa9ettwGDh9nevfs6KwtVj/ehhx81NjkREAERqEcCDS++9GpdbBHZfU8+Zgw9s3HMuWoMP+/bt9/Gjp9gV/75ervsqmusT//B9unnX+Qel5o0+Qm7b8z4qj+7vHHjJrupVz9bvmJlp9WfZBqLFn9mt/TunxPbSsWXZfSwgRGsYHbv/eNsV1NTp5UhGbHEN0lE/4uACNQTgYYX332Pfss2nf8t2/zz71dFZPMZ58iRVrtr1Ggb/9Aj1rx3rx09etQWf/qZ9bylry1c/Gm+IA19rqPi+/GChXb9Tb3s3fc+MNjt278/sLtt4FDbv79r3mom8W3oKqjMi0DmCTS0+J46uNxa5v1/dnDGX9r+p3q2M9ayjSdt+aazt3aeyvxnw8ZNoSe4Zu26XAh6d5OnTA2iwnGysV+/YaP17T8k9PyG3nGXPTxpsg2/654gRi/Oftnuf+Ahe3ra9NAr7HH9TfbG3LdyvehcImZGr/Pm3reFPedJZ+ozz9kDD060y6++1m64uU/oZcZhOF6ydLn1uW2QNTfvDZe2bNkayrBy1Vfh/8OHD9vg2++09z/4sF0axH/plT1yG0JMHm4bdLu98eZbIT3S5UakpeVIMtlwjvJOf2Fmu2sIMDxID+e94179Boa02H+xZFkuTDnXYQY7etbwpTywxSXtsae52e4d/UBgRpjX3njTTp06lUtPByIgAiLQlQQaWnxPNr0exBcBPrn3o3bcfnHnIcu37dpfeYPrwjHtuRfs2LFj7dLxf+LGnt4dvbzHn3jKDh06HMSrV9+B7cQXwXjzrXes9ehRe/f9+dbz1r6GQCZdPvG9ruetQXAJO/2FWdZvwFA7cPBgu6CILuddbBE9RNXFibS4zj6ZRr6eb4/rbw6Ce/DgIdu0eYtRnrnz3m6XJv8kRf4sD20nVq76MowcfLJwkZ04ccI+mP+RUS7O40pdX7J0mV1746328ScL7ciRIyEvMPXyxfbgJoEbnxmzZtvx48dt3foN1rvfIPtkwaJC2dN5ERABEehUAg0tvie2T+8S8cUCy1esMnpn9JoemviorfpydbueU9zYMxSNOHmvk/CIQrLne/LkyWBcFjLd0qd/3h5sUhhJh5sAd1wnLL3z2BE3ves5r7wWepkTJj4Wess+L00e7xx5b+iJJ9PIJ759BwyxnTu//g4l+Zg4aXKcZDhOxnWWh7ZeL/lh5IAeLo49/3OeHmk51/Hj4Rnehm8+8aWsg4eNMHr77mCYL/9+XXsREAER6EwCDS2+Puy8fd7f2LzlE9pxYtjZt4FTj+R6we08VfgPPTSGRn3h1e3DRxrDmbhYfGOh9STicxzj310Q3979DdFLuqSYEc4FBr/J63F4eqYIMPEjtPQWh915dxBRxMdFPBlHPvFNrnaOyxunmYyL/+k1+1A2eXeh9CFoD09+EVDyy77U9ZiDx+nn4vxxztOP97ENPA/ai4AIiEBXEGho8QXQ2/POtV89d4H9asYltm7fhrOYrd95Kie8dz1fvcd1GE5GyBhaxiUbe+/leoYQAD/Hcdzwd5b4InyDhg63jz5eYGPGPRREb+y4Cfb+/I/s7nvHhHlh8pcUzI6IL71jVkoz5xy7WBz9OCmu9NKLiW/yugst6Xicfi5pj1H3ja36SvS4fDoWAREQgUoINLz4frR1gf3k2QvDhgA/tfw5W9q0ImwvfvWyXfn00znxpSecxiESLBZi7jd2zCGOuPu+MG8bN/Y8ZsN8auy/FuLLMOsdI0YZC6BclCjLkGEjbODQ4blh5GqKL3PiI++5v92QMsxicWSouJxh5ULD0oRnyDi+HsdPerE9Pvjw47Bobeeurx91Ymjbh6xjm+pYBERABLqCQMOLL5Ae/mxyToBdiOP9758ZYQ+/cWbVbxqoDC0jpo8+/mR41IhFO58vWRrmWme//FqIMm7sWXDVf9Dt9uz0GQUXXOHfXWf1fF3krr7mhtzCKxZE8RhQ3BNMii+rum/tOyD0iHmsiuvlDjtTJsLzGNasl+YYC7QQRm5IeF553tvvhmKzoIpV3JxnOJ/Hk264qXe7BVfFrjOEThqLP/285IIrXwDHCm0WZx08dMjGT3gkrHh2G2gvAiIgAl1JIBPiCzB6wJfO6XGWCP9qxsU266s5HWa6Z0+zTXz0cbv6mhvD/OGNt/QxhBfhwMXiy//JR4243tXDzuSDni43Dr4aOtlDxE9SfPHDo0y8IIOh3krFlzg3b9kaet08lkQ8LArj8R7nxY0Bz0ojyMzDspgNIfbeaDnX40eNJjzymA0Yckeuh5+0By/4YN6b/LAqesrUZzr1rWEwkBMBERCBQgQyI75ewCW7lgchnrv+beO4Vs5XMnv6LG6Ke7t+Xvt0BBDn+Dldf24536K1dCkolAiIgAh0HoHMiW/noSo/Zt6CxVwrPbmTp06FIV96ynqutHyGpXx++tkX4a1jzOPSm2b+nZeK7N69p1RQXRcBERCBmhOQ+HaSCXgumBdtMOTKyyP0RqXqgkZwGfaHLYxhHb+BrLqpKTYREAERqC4BiW91eSo2ERABERABEShJQOJbEpE8iIAIiIAIiEB1CUh8q8tTsYmACIiACIhASQIS35KI5EEEREAEREAEqktA4ltdnopNBERABERABEoSkPiWRCQPIiACIiACIlBdAhLf6vJUbCIgAiIgAiJQkoDEtyQieRABERABERCB6hKQ+FaXp2ITAREQAREQgZIEaiq+ixcvNm1ioDqgOqA6oDrQ3epATcW35K2BPIiACIiACIhABglIfDNoVBVJBERABESgvglIfOvbPsqdCIiACIhABglIfDNoVBVJBERABESgvglIfOvbPsqdCIiACIhABglIfDNoVBVJBERABESgvglIfOvbPsqdCIiACIhABglIfDNoVBVJBERABESgvglIfOvbPsqdCIiACIhABglIfDNoVBVJBERABESgvglIfOvbPsqdCIiACIhABglIfDNoVBVJBERABESgvglIfOvbPsqdCIiACIhABglIfDNoVBVJBERABESgvglIfOvbPsqdCIiACIhABglIfDNoVBVJBERABESgvglIfOvbPsqdCIiACIhABglIfDNoVBVJBERABESgvglIfOvbPsqdCIiACIhABglIfDNoVBVJBERABESgvglIfOvbPsqdCIiACIhABglIfDNoVBVJBERABESgvglIfOvbPsqdCIiACIhABglIfDNoVBVJBERABESgvglIfOvbPsqdCIiACIhABglIfDNoVBVJBERABESgvglIfOvbPsqdCIiACIhABglIfDNoVBVJBERABESgvglIfOvbPsqdCIiACIhABglIfDNoVBVJBERABESgvglIfOvbPsqdCIiACIhABglIfDNoVBVJBERABESgvglIfOvbPsqdCIiACIhABglIfDNoVBVJBERABESgvglIfOvbPsqdCIiACIhABglIfDNoVBVJBERABESgvglIfOvbPsqdCIiACIhABglIfDNoVBVJBERABESgvglIfOvbPsqdCIiACIhABglIfDNoVBVJBERABESgvglIfOvbPsqdCIiACIhABglIfDNoVBVJBERABESgvglIfOvbPsqdCIiACIhABglIfDNoVBVJBERABESgvglIfOvbPsqdCIiACIhABglIfDNoVBVJBERABESgvglIfOvbPsqdCIiACIhABglIfDNoVBVJBERABESgvglIfOvbPsqdCIiACIhABglIfDNoVBVJBERABESgvglIfOvbPsqdCIiACIhABglIfDNoVBVJBERABESgvglIfOvbPsqdCIiACIhABglIfDNoVBVJBERABESgvglIfOvbPsqdCIiACIhABglIfDNoVBVJBERABESgvglIfOvbPsqdCIiACIhABglIfDNoVBVJBERABESgvglIfOvbPpnKXVNTkz3++BP269/8zv7XX/+d/cVfftP+4R//2S659HKbO/dNa21tPau8a9astf/89vesZ8+b7ciRI2dd1wkREAERaEQCEt9GtFqD5RlRHf/gQznBRXTzbd/7/g9twYKFdvr06VwJJb45FDrIKIGRd48Kv4dPPlmQ0RKqWPkISHzzUdG5qhHYs2ePXf2nHrle7v1jxtrGTZvsxMmTIY3jx4/bsmXLrVfvPvbNv/rr0BN++eVXculLfHModJBRAhLfjBq2RLEkviUA6XJ6Ai0tLXbLrb2D8CLAO3fuKhjZqVOnbNaLL9lvf3eRrVu3PudP4ptDoYOMEpD4ZtSwJYol8S0BSJfTE3jllVdDbxZB3bWrqWREDDefOHGinT+Jbzsc+ieDBCS+GTRqGUWS+JYBSV4qJ0Cvt0ePa+3v/vc/2PwPP6w8grYQsfgS5/vvf2C/v+iPQdRZtHXxJZeF+ON54jixgwcP2hNPTrVfXvjrEIahbY4519JSeAEX89SzZ88J8fvisP/+yf/YuHEP2u7du+MkcsfE9+hjk+388y9ol9ZLs+fYsWPHcv7igy1bttqoUffad777/dzQPAvQ3nvv/dzQfOy/0DFpUybS9vl08kt+kuXcu3evXfCLC8O2Y8dOI39JPiyA86mBQmnG5zdt2mx33HGn/eu/fSuk77bBXoxq5HPka/rzL+TSJt+F8uzh04Sp1JZxncu3yI9zLAAkv/E8bSyiTKVcd/2NYRoFf9h33PgH7cCBA6EocRxur3gfx+tl1z5bBCS+2bJn3ZTmq9Wr7Vv/8R3748WX5hqcNJnzhhAhv/POu4Ko0cD//IJf5hp6BJVGPCnAixYtMhZx0aghBuf9z8/C5mL64x//xJYsWXJWthj2ZkU24Yj73P8+z87/2S9yDSnpz5v3Vrv06NnTwy+UFsPuzH+7I6/E4WLlZSIt0iSe3r372qFDhzxIwf3q1WuMshRKG1bxUL6L73/94Ed2xZVXh3Cevt8EENfYseNKCjDlmDFjZm4xncfzw3N+HOIlnqG3DzNunGK3atWqonmmPJQrdmnCpLGl17lCK+xj4YxF0sWXqRbqmNe52KYXXXRxqAdHjx4NNytxPYYZ/7N9/vkXcdF1nEECEt8MGrUeikSjRMN754iR7USq0rx5Q/g3f/v39s//8u/2+utv5HpS9MymTXs2iBU9JnqR7hB/xIUGcOpTT7d7jIne02OPPR6u4Qe/7lxEEUAaU3rO7ui9zpnzchBMHpGKe/STJ08J5b192B3tepr0km+48aaQ1syZszwq++yzz4OYIzKLFi/OlQkPhBkwcFCIr5QA0qskbfg88MD4dmmTd/hjhz59+uV63y6+nKcczLV775Q9jDn/7//vPwzBK+b27dsfRjh4HOztd97JxYMoI3y/+tVvQ/qMIrjbvn17uAmCcTLP2MbzzKgG8ePShElrS69zacUXroOH3N7uxmnDhg05Fk9OfcpRhL2Ldizk7Tzon0wSkPhm0qy1LxRDmTRCNCwdcd4QEtezz00/S8gRRISF6y6GnOs/YGAQ5Xw9YvKDOBAf4YYPHxF6eJx7aMLD4dzo+8cU7PUxJMxwOr1x79G5+DKEnByupffqIkLanmcEDhHO5/BPLwlRg0ExR74Z9k2mSxiGOendfu97P7D1688sZIvFl/ISPnbEAxPYxDcMsZ/4mGHdbdu2xadyx4wscNNEb5DeHmkx/ErchRjD9KabbrF+tw0IawXShklrS69zacU3vmnIgTCzd999L9RJZ+HXJL5OonvtJb7dy95dVtpq93x/et75xvxkPueN13PTnw+XN2/eYuf86NwgXrHoJcM2NzeH+Ub8EgahYpic3jCPQxVyPuyIAPvwIOHJI6LC0O3AgYNDL5nz3qv0+Dx/pHP33fcEEUKIktuFv/pNiO+tt9/xoEX3lBXu8+d/GLalS5eGF5PAJ86riy/TAnGvP44clpTFmcbX8h1TRsrlabOHIS9WYX7Zpx/II73hUozjNNKE6YgtOyq+jMbkc4Xi9fqrnm8+atk9J/HNrm1rWrJqz/kW6oVQSG+8XCiY62VIc8jQYXl7gw4mKaL0DOkhMj97+PBh95Z372m++uprueuI2sSJk4KwIFy+MedHb9l7mJ4/v15q7+XKJZQ42Lt3nw0ePDSUORkXw+5//3/+KeTFG3cXX0SR43yuEvFdumxZbo48mT5pkwdPqxLGnq/ODpO0ZSGR9Px4vaGszpRrHk98zsOwLxRvqXBxHDrODgGJb3ZsWVclYeiw2qudafTyOW+8XKRc3LpafD1viCy9auZOr7jiqiCK3Azw6BWOxpmGOzn86OEr2cOZeIiPxWVPPz0t1/t89tnn2omii0I1xdfn1kmfslJmer3cbIwZ80BYdMc1ia/Et5J63R38Sny7g5VrVMZKn/MlmyxMiVf4FuotxEVKiq8P6zJn2lXDznF+4mOEmMd2EN/rb+gZFkR5T44V1MVePBLHU+iYYW+GlBnKzRcXw8E8AoQAdob48tpQ4s43102eGXbm8ScX3zRDyGnCdOawM6Mi/tY2Z0pZvR7G52K7FarLpcLFceg4OwQkvtmxZd2VhJ4qr42kcS71hitEikaLBUasDmYoFVeowYoL642X93y7esEV6dHL/MMfLgmrcuO8xWVAIBESX3AFl3yLyAhDj5ah5GeemdZupXYybpgRz6BBQ/IOsfsqYfy4KFSz5+vsucHI55iv5sbDxRc7l1pw5Qu++va9Lczzpw2TdsFVqZsjFvZxwxMzpezOwjkneRSqy6XCJePR/9kgIPHNhh3rthSVvtuZBu3e++7PPRZTqMGKC+yNl4sv13w4tNCjRv6hh0ofNWL1NM+yxo8aIRY8EkTeGXpl5bE7hPbBhyaEa76qmmv+qFG+/MWPGnHzUmi4nXhY1EQZeCzo448/yc0rI1grV64Ki87IVywU1RRfHiEi7ssvv6pdz5ty+2NZXHfxJc/xI0D5HjXiHILtz8RWIwx1JPnYWD5bkpZPmZDve+8dnbv5gSl282eqY6aE83pYqfj66AHD9IxUkE5ykR7xy2WLgMQ3W/asy9KU+1UjRO3552e068GlFV9AdOVLNmiw6anRICMcyRdzJF90QQMbv2QDEeYlIPELGZIv5shnXOJBREiTtFlpTVr+sgxe/MHceywU1RTfeM45X7l5DIwyxeJLOXgGmHySLy875eeYc/lespE2TKUvTCF/CCg3WOSFPVME/uKQfEwJk1Z8/UaMtEgDXgsXLspnbp3LEAGJb4aMWe9FKfY9X96SFPdMvCwdEV/iIM6uer0kvb34VY00prz8gxXQzEHmc/Ry7xt9f04sER+eE0WYia8chwDne50h8RJ/UhSqKb7kL1luRJjXVcKCx8MQ3qT4Ei7NqyLThKn09ZLOfMWKlWe9IrIQU8IkOXs8vi9Ul7Efz0Njd9gVe/7b49K+8QlIfBvfhiqBCIiACIhAgxGQ+DaYwZRdERABERCBxicg8W18G6oEIiACIiACDUZA4ttgBlN2RUAEREAEGp+AxLfxbagSiIAIiIAINBgBiW+DGUzZFQEREAERaHwCEt/Gt6FKIAIiIAIi0GAEJL4NZjBlVwREQAREoPEJSHwb34YqgQiIgAiIQIMRkPg2mMGUXREQAREQgcYnIPFtfBuqBCIgAiIgAg1GQOLbYAZTdkVABERABBqfgMS38W2oEoiACIiACDQYAYlvgxlM2RUBERABEWh8AhLfxrehSiACIiACItBgBCS+DWYwZVcEREAERKDxCUh8G9+GKoEIiIAIiECDEZD4NpjBlF0REAEREIHGJyDxbXwbqgQiIAIiIAINRkDi22AGU3ZFQAREQAQan4DEt/FtqBKIgAiIgAg0GAGJb4MZTNktTGDZsuX25NSnrKWlpbAnXRGBMgk89Noh+3a/nTZvSWuZIeRNBMonIPEtn1VmfT43/Xnr2fNmO3LkSMOU8ZNPFtgFv7jQ9u7dm8vz66+/Yef9z89sy5atuXO1OmhEprViVa/pTp53uJ34Nu0/aeff0WRXjWu2w62n6zXbyleDEJD4NoihOjObjSgU+cS3MxlVGncjMq20jN3Nv8S3u1m8c8sr8e1cvnUdO71Geo9/8ZffzG2IBu706dP23nvv2/nnXxCu/dcPfmQzZsy0EydPFi3TihUr7U9/vsa++Vd/bf/6b9+yCRMmWmvr18N2hCce4iNd4icd0sN5nqZMecIemvCw/cM//nPY7ht9f4iH3jm99DjPI+8eFcKS97g3zPkbbrzJXnv9DTv3v88Lebriiqts8+YtuTLgJ9nrTwp7kgV5XrBgYS7Pucii/Mf5c6alyh7H48dgeXf5UfvlXU3277122Hf67bSRMw5Yy9EzvFwQLhmzx8a9fNC+P2Bn8HfFA3ts8+6TRu8tnOu9w64e32w79n1tv3Lj/tdbd1hy6z91n2fRVmw+bpeO2WP/3nuH/Wffndbr8X22fe/X6SzbdNz+a8BOu+WxvXb/SwdDGfDb74l9dvDIqVw8lImyUUbK+utRu23B6mO56xxs2XPSbpy0N6RDHJRzzfYT7fw0HThlvSbvDfmh7HCBD71WeOHIP3l6+t3DIR3SO3forsDaI5s091Ao91tLWs2PYw6cx506Zfbc/Bb76bCm4P+cQbvssTcPWevx4r3j4ydPB/vgn3gJ/8riI9b2UwhxE8f4Vw5a7GfOwiMhTTx0xP4hAf2pGQGJb83Q1z7hU6dO2b59+w2hu+aa62z79u25oedXXnnV/vlf/t2efW667dmzx+bNe8u+893v2/TnX8grOpTmq9Wr7Yfn/NgeeGC87drVZIs//dR+fsEvbezYcUG0ETEE9T+//b0QH/ESP//P//DDAMTF95/+77/YY489bjt27LAXX5odBHj27Dkh7QMHDoTwiOD69evt8OHDIWw+8f2bv/17u+mmW4K/pUuX2q9+9Vvr06efHTt2plEvR3zJG3kkr5QLXt/6j+8Yc8xJV4hpOWVPxsX/zDciaAjRsx+02PUTm0NDfdcLB0Ij7Y0vjTd+hkzbH4Sa/380eJf9bHiTDXp6f7jGueHT9+ca91JxI4yjXzwY4iTeAVP3BRFAqBB13JINx8O5Hw7aFQTt+olnRO/CkbtzQu/i63kkPwgh/yNqOETmhkf2BtG9/IE9IS7i/O5tO23RmjO22rrnZCgb4nzr5L1h4xhh4gYgjoe4uSGI00qKL348Ls83vHa23aC44CKyCDwCS1rcCL204Ejwh1A+OvdQ7mYBTtiBuIc9u99OfH0PEvLnfwiHDfGHf88nbIkbhzgTH+dgEvtx/h2xv+dF+9oQkPjWhntdpYpoxb0/BPmiiy4OIuM9UjKM+J3zo3Pb9Ry9IPgbNeredsLGNXqRP/7xT0KYjZs2hfBvvf2OBwtiOm78g/bHiy81RNXFl3Oe9vHjx63fbQPMe7geb9zL5Vw+8aUclMfdq6++dlbvOC57Mu6DBw/apZddYXF+EG4EnPJ6Hj1+3yeZllN2D+t7Gm56i/Telm48Iy70XM8b1mQ/v7PJdh84lev5XHTfbtt76EwvcsOuE6EX99Pbd9nGpjO9QnrBP7l9l/1x9B470HIqiEKpuD0fvkcUEIIeD52Z8yR/fabss2/12WHvrzgavCEqj7xxpsf41LtnBNrF95oJzbneIOWhXOSBeD5cdTTEQ48V0cF98tXRMOc6+Jkz9qMHi1h5vPihp0j6flPh8cRpOY+k+CbzTU+cBVaL28Q+Fl/ScqGL53zhij242cAeOG5a6JEj1F9tO2O3cCH6g5j/eMguu3j0Htt3uL3d/vRgcxjZ+Hz9sXDzEZeFnj+29/Q8T5XaP8qKDmtEQOJbI/D1lGxSKOjBMiz8+edftMsmw7WIL4KadPQ+r/5TD5s27dnkpdz/9CDziTfp0GNes2ZtTnzJU+wQ3jTiW0xYib9Uz5c8fe97P7BFixbF2bHJk6e0u2Fpd7HtRiBOu5yyJ+PI9z8LfWj8XUi88Y0Fodg5D1dO3LGf1dvOiAWCwTEOsUEIfn3318LPeRdbF1b/Px6q9nOebxc67/URD8O5ew6eCmLGkDSiRPrxMLOX1W8qHn/rcBBoRgncuZ+47D7sTD7ccQ5x9+Fkz5P/7/F4ngnHlAA3JCOeP+DRhL2HjcsTeyBO0rp/9sHcaW5cuIFi4zhfWfBMPv0mIV+eip2LGeQS1kFNCEh8axNEkFkAACAASURBVIK9vhJNii/iyjArwhM775XmE1+/lhTNODzXkr1VrpMOw9P1KL4MVTPvHM/h+jFD2HGvOlnWWHzLKXsc3o8RHYZ+/3vomXlBGmw2b0SLNbSxSLg/D0f8peL2PCD49HbjIVGueZxxOpz33rmfd6EtR3xd6Dxt3ydvOvz8odbTYUjWy+WiF8fj+XQ/hK2W+LqIkm7s3vj8jLgmz7ufQuH8Ovt8ZeH8w69/PRftZXPWXC92LmYQp6Xjricg8e165nWXYlJ86fmyQGn58hXt8sr8Kr3AfOJbbs/3p+edbzt27GwXL71K4q1H8SVPPL5EHrnBiDeElznefC7JlJ5vqbIn42E4liFXRO+eWQeMOU+GkZnL9Ea0WEObr0H2cOXE7flhfpE8DHxqX25ImGuler7MTx89fjrXEy5HfAv1FEv1fL33na+36Iy87OS9WuJbqucb98CdJ3sX37jnG1/nOF9ZOE/eGTJniN3Lls/W+c7FDJLp6f+uJSDx7VredZkaQnH9DT2tpeXMQo9qzvkuWbLEevS4NizmKmfes1APOt+w8/k/+0VYDOZQk73LUkPKhGP4mOFyX7TFublz38z10J0Fi63i+V1Yxau4PQ++TzItp+we1vcubswp+iplhiSZ3/NGNG3jW07c5MMXVLHICPGPnc/5siBs/srSc77FxNfnamOBZ6EVC67iOV9uAqa9//WQcnLOl/lahmRZvOWrjQvN+bLauaPDzj7ny6Iphshxlcz5MjfsK765sWKePjnnG5el0JxvPqHNd87rTWxHHdeGgMS3NtzrKlUWITHMzNzr/v1nFrcUWu3MG6RiEYoLklzt7KuLR98/puhqZx5JevudM4uwyhVf8kq4N9+cZ83NzSEbacSXFdkMK7OCmZXMr772emARD4/zaFS88ptVzjyyxGNUhXq+SaYwy7fSOy57zJJjeo03Pfr1CmBWu14w4swqYW9E04pvOXH7cDPD3L+958xKalbfsvEoDXG4OJez2rmY+CZXO1NWFoilXe2MSMcrhOOhetim6fly40MPm5sN5rNXbj4e5mbLWe3MDcP/6/31KvHkameY+uNk3vuvZLVzPqHNd87rTbKu6f+uJyDx7XrmdZcignfd9TeGec2ZM2eF/CEWaZ7zXbpsmV18yWXhmVoex+FxobiHWOpZ13LFl+d9hw8fEdK59777Q57TiK/nh7zybDKPXCXjSbLIV66kUfMx9bQKPeOcjIP/42dWeSyGx1NoVKux4KbcuH2eOd7HDXu5z/kWE1/KytByZzznCzOe4fWhadJKI76Ee/OL1txz077Cu5znfGd81GL/0WdneFyJeHDVfM43tkexGzKJbxv8OthJfOvACMqCCIhA9QgwpI6Qu+NxHx778TloP6+9CNSSgMS3lvSVtgiIQFUJ7G/5ek6coWt6uAyJM1SsDyRUFbUi6yABiW8HASq4CIhAfRHgOWB6uQguc78shvr4y6O5N3vVV26Vm+5KQOLbXS2vcouACIiACNSMgMS3ZuiVsAiIgAiIQHclIPHtrpZXuUVABERABGpGQOJbM/RKWAREQAREoLsSkPh2V8ur3CIgAiIgAjUjIPGtGXolLAIiIAIi0F0JSHy7q+VVbhEQAREQgZoRkPjWDL0SFgEREAER6K4EJL7d1fIqtwiIgAiIQM0ISHxrhl4Ji4AIiIAIdFcCEt/uanmVWwREQAREoGYEJL41Q6+ERUAEREAEuisBiW93tbzKLQIiIAIiUDMCEt+aoVfCIiACIiAC3ZWAxLe7Wl7lFgEREAERqBkBiW/N0CthERABERCB7kpA4ttdLa9yi4AIiIAI1IyAxLdm6JWwCIiACIhAdyUg8e2ulle5RUAEREAEakZA4lsz9EpYBERABESguxKQ+HZXy6vcIiACIiACNSMg8a0ZeiUsAiIgAiLQXQlIfLur5VVuERABERCBmhGQ+NYMvRIWAREQARHorgQkvt3V8iq3CIiACIhAzQhIfGuGXgmLgAiIgAh0VwIS3+5qeZVbBERABESgZgQkvjVDr4RFQAREQAS6KwGJb3e1vMotAiIgAiJQMwIS35qhV8IiIAIiIALdlYDEt7taXuUWAREQARGoGQGJb83QK2EREAEREIHuSkDi210tr3KLgAiIgAjUjIDEt2bolbAIiIAIiEB3JSDx7a6WV7lFQAREQARqRkDiWzP0SlgEREAERKC7EpD4dlfLq9wiIAIiIAI1IyDxrRl6JSwCIiACItBdCUh8u6vlVW4REAEREIGaEZD41gy9EhYBERABEeiuBCS+3dXyKrcIiIAIiEDNCEh8a4ZeCYuACIiACHRXAhLf7mp5lVsEREAERKBmBCS+HUR/bMlHdmjK3bav/x9sz+XftqZf/++wccw5ruFHTgREQAREQAScgMTXSVS4P/L6NGu+8TxruvBvy9rwS5hqugkTJ9lvfv9H27FzZy7ajZs22wUX/saGjxhpJ0+ezJ2f8uRT9svf/M62bNlq944eY7379rfW1tbc9UoOnp8x0/5wyWXWvHevbdq82S78ze9t4qRH7fTp05VEE/ymCU/63/7+D3Pb988513r362+7djWVlf6ChYvsvJ//0tasXZvX/7Fjx2zI7XfY1T2us/379+f1U+pkMcZpylwqPV0XARFoLAIS3wrtdWLd8tCjLVd0k/7oDRNHNdxHH39i3/3Bj+zxJ6YW3F57Y66l2d57/wNLs817621Ls3362eeWZnv7nXctzTb75VcszfbB/A8tzbZu/Xord6tG3VAcIiAC9U1A4ttmn1NHDluhbfeV37U0256rvm/lbGmrCL1YerMS38oFOI3wEiaN8BKmXOHFn5wIiED2CUh822xcSHg5n0Z4CVOO8OInrWPYmOFjia/EN20dUjgREIHaEJD4tnFvRPEl68zlSnwlvrVpPpSqCIhAWgIS3zZyjSq+XyxZIvFNMe+rYee0TYbCiYAIVIOAxLeNYi3FtyOroJubmyW+Et9qtAWKQwREoAsJSHzbYNdSfHkMKa07fvy4xFfim7b6KJwIiECNCEh828DXUnx5HKkjL+LgedtC27bt2y3NtmnzFkuz7dy1y9Jsu3fvsTTb1m3bLM22fccOS7Pt3LnL0mx79uyxcrcatQVKVgREoAsJSHzbYJ/YtNoKbc03/9zSbHuuO9fK2RBf3oSV1hUSXs6nEV7CpBFewqQRXsKkEV7CpBFewqQRXsKkEV7ClCu8+JMTARHIPgGJb5uNCwkv59MIL2HKEV78IL68fCOtk/hW3vuV+KatbQonAiJQDQIS3zaKtRZf3gWd1kl8Jb5p647CiYAI1IaAxLeNe63Flw8ypHUSX4lv2rqjcCIgArUhIPFt4y7xbb8wS3O++Rdkac63Ng2VUhWBrBGQ+LZZtNbiq2FnrXb2RVlZa2RUHhEQgbMJSHzbmNRafLXgSuIr8T27gdIZEcgqAYlvm2VrLb561EjiK/HNajOrconA2QQkvm1Mai2+esmGxFfie3YDpTMikFUCEt82y9ZSfDvyekmyr9XOWu2c1QZK5RKBrBKQ+LZZtpbi25EPK5B9ia/EN6sNlMolAlklIPFts2wtxTdN5Tp9+rRNnjLV5s57W+Kb4v3OesNVmlqnMCIgAtUiIPFtI9lo4ku2Fy7+1B58eJLEV+JbrfZA8YiACHQRAYlvG+hGFN8tW7banSPvtTVr1xXc1q5bb2m2DRs3WVduS5evsDTbhg0bLdWWsnxbtm6zNNu27Tus3K2LfvtKRgREoIYEJL5lwN9/5zWWZjv4yDArZysjC3m9HDnSaveNGVdQeBHlNMJLmK4UXtJKI7yESSW8CLbEN2+d0kkREIGuISDxLYNzGuElTDnCi5+OuGnPvSDxTdP7lfh2pNoprAiIQAcJSHzLAFjP4rtk6XKJr8S3jFosLyIgAvVEQOLbQWvwcgzeTsXrIXk/M18nYuOYc1zryAs0SmWPF/1rzjfFvK96vqWqlq6LgAh0IgGJbyfC7aqoJb4S366qa0pHBESgOgQkvtXhWNNYJL4S35pWQCUuAiJQMQGJb8XI6i+AxFfiW3+1UjkSAREoRkDiW4xOg1yT+Ep8G6SqKpsiIAJtBCS+qgoiIAIiIAIi0MUEJL5dDFzJiYAIiIAIiIDEV3VABERABERABLqYgMS3i4ErOREQAREQARGQ+KoOiIAIiIAIiEAXE5D4djFwJScCIiACIiACEl/VAREQAREQARHoYgIS3y4GruREQAREQAREQOKrOiACIiACIiACXUxA4tvFwJWcCIiACIiACEh8VQdEQAREQAREoIsJSHy7GLiSEwEREAEREAGJb5E6ABxtYqA6oDqgOtB4daBI014Xl6hT1XDfqDSSaiVcabryLwIiIAIiIAK1JlAtDZT41tqSSl8EREAERKBhCEh8G8ZUyqgIiIAIiEBWCEh8s2JJlUMEREAERKBhCEh8G8ZUyqgIiIAIiEBWCEh8s2JJlUMEREAERKBhCEh8G8ZUyqgIiIAIiEBWCEh8s2JJlUMEREAERKBhCEh8G8ZUyqgIiIAIiEBWCEh8s2JJlUMEREAERKBhCEh8G8ZUyqgIiIAIiEBWCEh8s2JJlUMEREAERKBhCEh8G8ZUyqgIiIAIiEBWCEh8s2JJlUMEREAERKBhCEh8G8ZU+TO6cNFiK7QtX7HC0mxffrXa0myr16y1NNv6DRsszbZhw0ZLs61Zu87SbEeOHLE0W37L6awIiEB3JiDx7aD1D7ausm37ZtiaXaNt+bZ+9umGa23h6h722bpbbdXWe2zr3pl26OiXHUylcPBCwsv5NMJLmDTCS5g0wkuYNMJLmDTCS5g0wkuYNMJLGDkREAERSBKQ+CaJlPl/08F3bcW22+2zTdfaZxuvtQVf/snmzf+jPTftf+zxcefYY2PPsaem/I+9OOfX9tEXf7ZV2+6y5sMflhl7ed5aW1sL9nolvoV7xRLf8uqXfImACHQeAYlvG9tTp45boW32s1dZmm3JgtFWzpbWvBLfwgJbrFcs8U1b4xROBESgWgQkvm0kCwkv59MIL2HKEV78pHUSX4lv2rqjcCIgArUlIPFt4y/x/XpxluZ88y/I0pxvbRsrpS4CWSIg8W2zpsRX4ltqOFrim6WmT2URgdoSkPi28W9U8V2zZq0V2tav32Bpts2bt1iabdv27ZZm27xli6XZmpqaLM22afNmS7MdOnTI0my1/YkrdREQgXokIPFts0otxXdvy8ep6gZzvoWEl/NphJcwaYSXMGmElzBphJcwaYSXMGmElzBphJcwciIgAiKQJCDxbSNSS/Fdu/uepF3K+l/iq55vWRVFnkRABOqOgMS3zSTNB9daoW365Jstzbbo3busnG3Fjt52+NjqiiuHxFfiW3GlUQAREIG6ICDxbTNDIeHlfBrhJUw5wosfxHfnwTkVVwiJr8S34kqjACIgAnVBQOLbZoZai++G5gdTVQjN+VYuwJrzTVXVFEgERKCKBCS+bTBrLb5f7hyayqwSX4lvqoqjQCIgAjUlIPFtw19L8V2+vZct3947VUWQ+Ep8U1UcBRIBEagpAYlvG/5ai++ybb1SVQSJr8Q3VcVRIBEQgZoSkPi24a+l+C7bdrOt3D4wVUWQ+Ep8U1UcBRIBEagpAYlvG/5aiu/SrT1tbdOYVBVB4ivxTVVxFEgERKCmBCS+bfhrKb5Ltt5g2/bPTFURJL4S31QVR4FEQARqSkDi24a/luL7xZbr7GDrqlQVQeIr8U1VcRRIBESgpgQkvm34aym+K7ene8yIrEt8Jb41bUGUuAiIQCoCEt82bLUU390H301lPAKtW7+h4LZ+/UZLs23avMXSbF+tXmNpttVr1lqabcPGTZZm27Fjp6XZNm7abGm2pt27LbmlNrgCioAIZIKAxLfNjLUU37Q16fTp0wWFF1FOI7yESSO8hEkjvIRJI7yESSO8hEkjvIRJI7yESQov/8uJgAh0bwIS3zb7N6L4IiTq+Vbe+5X4du9GT6UXgXogIPEtwwp7mvdbmu1I62ErZysjC3m9bNmyVeKbYuhZ4pu3OumkCIhAFxKQ+JYBO43wEqYc4cVPWqdh58p7vRp2TlvbFE4ERKCaBCS+ZdCsV/El6xp2rlyA1fMto9LLiwiIQKcSkPiWgbdexfeDDz+W+GrYuYwaLC8iIAL1RkDi20GLHG45EuaDd+3ea7ubD9j+Ay12uOWYtRw5bq1Hj9mx4yfs5MlTHUwlf/ATJ05IfCW++SuHzoqACNQ1AYlvXZundOY07Kxh59K1RD5EQATqjYDEt94sUmF+JL4S3wqrjLyLgAjUAQGJbx0YoSNZkPhKfDtSfxRWBESgNgQkvrXhXrVUJb4S36pVJkUkAiLQZQQkvl2GunMSkvhKfDunZilWERCBziQg8e1Mul0Qt8RX4tsF1UxJiIAIVJmAxLfKQBWdCIiACIiACJQiIPEtRUjXRUAEREAERKDKBCS+VQaq6ERABERABESgFAGJbylCui4CIiACIiACVSYg8a0yUEUnAiIgAiIgAqUISHxLEdJ1ERABERABEagyAYlvlYEqOhEQAREQAREoRUDiW4qQrouACIiACIhAlQlIfKsMVNGJgAiIgAiIQCkCEt9ShHRdBERABERABKpMQOJbBChwtImB6oDqgOpA49WBIk17XVyiTlXDfaPSSKqVcKXpyr8IiIAIiIAI1JpAtTRQ4ltrSyp9ERABERCBhiEg8W0YUymjIiACIiACWSEg8c2KJVUOERABERCBhiEg8W0YUymjIiACIiACWSEg8c2KJVUOERABERCBhiEg8W0YUymjIiACIiACWSEg8c2KJVUOERABERCBhiEg8W0YUymjIiACIiACWSEg8c2KJVUOERABERCBhiEg8W0YUymjIiACIiACWSEg8c2KJVUOERABERCBhiEg8W0YUymjIiACIiACWSEg8c2KJVUOERABERCBhiEg8W0YUymjIiACIiACWSEg8a2iJTdt3mKrvlwdNo7lREAEREAERCAfAYlvPioVnGtpOWKzXnrZrrnhZrv0yh7ttlv7DgjX8CMnAiIgAiIgAk5A4uskUuzp3broDhw63J6eNt0+mP9R2DjmHIKMH/WEUwBWEBEQARHIKAGJb0rDIqYIa4/rbw5iWygaxBg/+K22ADfv3Wt/uOQye37GzHbJFzrfzlOD/NPa2mq9+/a3e0ePaZAcK5siIAIiUJqAxLc0o7N8MIxMbxZRjQV11ktzwnmuMRTtDj/45Xw1h6ALiWyh856fet5zI8ENBWXASXzLs1aSW3mh5EsERKBWBCS+KcgjsvRk6dW683MMNftwM+fc4Zcw8Tm/lnZfSGQLnU+bTleGS4qIxLc8+klu5YWSLxEQgVoRkPimIE8vFoGNHf/f0qd/7hTHgxJ+OMcirGq5QiKbPL912za7tU8/+/4559o55/7URtx9j+3dty9k48SJEzbzxZfsggt/Y9/+/g/td3+4xD6Y/6GdPn36rGwm/RKGsJx3kRw8dJjdfe99ubQmTnrUWo8eDXER5+JPP7PLr/6zffcHP7Jzz/uZcb2lpSUXnjz4xlCzx3vX3ffY409MDfmnDMl4yTN5J2ycLxImnhtv7mXjH3o4hGcYm3hjFzOCE7w45w5e948dF8KT96t7XGer16z1y8HvgMFDQ7kJ37tff9u1qylcL1ZuPCxYuMjO+/kvbc3ar+OLxZTzXJ/69DS74uoeoYy/+u1FwU5HjhwJw/LOjL2G6HNm0YEI1C0BiW+FpvG5XhZUxQ7xRVgZVmbj+K5R98VewoKsas79JkXWE4vPHz9+3AYNHWbX3Xizrd+wwZYtX25/vvZ6e2nOy0FgX5gxy356/gU255VXrampyaa/MCM09J8sWOjR5fYrV31pl135J3v9jbk5vz/+6fn26muv50SSxr/PbQNs3ltv28hR99p//ehce+/9D0IcH370cRAvrr/z7nv2zLTnQlp9+w+0AwcPhrwh3IgnaXy1enUuXuJBQON433hzXi5ehPzxJ54M+Zr39jt2/gUXhhsDPCBG5AvBJAzX4eLu+IkTNuaB8Tbk9jsCI8Tumut7Bv/79++3gwcP2s29+tjPfvlrm/bc9BAHcV34m9/bps2bbcfOnXbRxZeF4fLZc14xtt/8/o+58MXKfbilpWzx5abjoYcfyaX/+z9eatu2b8/LzcumvQiIQH0SkPhWaJdVX3511pAzUbwx961wnnldNkSWc7FzP8RRDReLbBxffP7kyZNBBC+5/MrQSMei09zcbH+89AqbPOWJXE8X/8NHjAwbx/kcgkEaCNMtvfoGcfMe6rU39AxCSjgE9eoe19r9D4zLieidI0eFnrLH++lnnwdBdrGPe3z48Xjp8e3btz8EO3z4cLiZiHvGt99xZ7t4pzz5VPCDX/zRU9y+fYcnm3dPD540yDeC6b1Rbh7O+9kvbPmKlblw9ISXLF0W0nzqmWn224suth07vo6fXjM3Dy1tPdNi5S635xvb6YslSwI3RhJwSW65jOpABESgLglIfCs0SyHxJZpPP/si9Hbp8XKcdD7v29niu2dPs9ErokHGMez79LRn7ZIrrrIf/Pgn1vOWXmGY1Icz4yFLP843NEvPGHF1Pwy/0iONRZBjdy6cnItvCPw6++T5pIh4HPSIfSjcz8Xxep7ivS/cwl++8ng+iHfWS7ODmHl4OLn4JvPk4XxfLP5k+TxMfL5c8cWfO7ednyuVRw+nvQiIQH0QkPhWaAcfdk6zcIqh6moOO9MDZSh2wKAhduzYsVxJmP9kGJbeEcJCD2zDxo3hOkLM8CpDvZQFkWbI2R3+N27clJun9fPs6cHSg96yZWs4jYBc3/PmssTXBbNYD5BIkyLi4RA4d/E5Z/DgwxNz4ow/ep4MF+OKiSPXGY7/2S9+Zc88+1zoyZ46fToMb7v45uv5UnZ67fSW8/V8zwwHryi758vw/YqVZ3rW2IDy+M1DUmjJc/JcklsouP6IgAjULQGJbwrTsOAqXji1e/ee8GjRXaNGh/Nn5ntHh3Ncc8eCq3hRlp/vyJ7hURrufgMGhXlUhlsRXv5HpBAgBJL5ylkvzs7NRzIPjGAjHPTy7rnv/hCePf+zkCrpJkycFOZjFyxaFOZWmWNlcRHiFguih0ueKzX3STjyyNwmi6vwT/6Tz/km4333vfdDnp0B+YTBuAcnGEPnpcSXm4lf/uZ3YaEYvXvmxRnmdvEtNOfL3PS6desLzvkSB6MQpcrt6fucNPPPcK1EfJPc4ukFt4f2IiAC9UNA4pvCFv5YEUPLkx6bEnqz9GgRZYac2TjmHNukyU+Ex5I4TtNjLpZFekk07gwpM2SK6PgKYg/Hqlt6uzTobBz7Slx6bvR8mRMlPHsWO9H7SzrmOem5EgcCSTwIRrniS14LrXb2tPYfOGCsGmZIm/2+/ftLim+SAfOzDLP7aEAp8SU8owXOgFXTrGx28SVvydXO3NAgvO7oacernWPGpcodp+8rqVnZXIn4Jrn5CnPPn/YiIAL1RUDim8IerGaOxXXsuAntXrbhUTK3yzUXYcJU8yUbno72IiACIiACjUVA4pvSXj73i7B+8OHHBWPxRVb4I4ycCIiACIiACEh8O1AHEFPvATPP+/Sz04MQI8Yccw7RxY+EtwOgFVQEREAEMkZA4ttBgzKMzDwuC6l8eNn3nOOahpo7CFnBRUAERCBjBCS+VTQovVvmednU060iWEUlAiIgAhkjIPHNmEFVHBEQAREQgfonIPGtfxsphyIgAiIgAhkjIPHNmEFVHBEQAREQgfonIPGtfxsphyIgAiIgAhkjIPHNmEFVHBEQAREQgfonIPGtfxsphyIgAiIgAhkjIPHNmEFVHBEQAREQgfonIPGtfxsphyIgAiIgAhkjIPHNmEFVHBEQAREQgfonIPGtfxsphyIgAiIgAhkjIPHNmEFVHBEQAREQgfonIPGtfxsphyIgAiIgAhkjIPHNmEFVHBEQAREQgfonIPGtfxsphyIgAiIgAhkjIPHNmEFVHBEQAREQgfonIPEtYiPgaBMD1QHVAdWBxqsDRZr2urhEnaqG+0alkVQr4UrTlX8REAEREAERqDWBammgxLfWllT6IiACIiACDUNA4tswplJGRUAEREAEskJA4psVS6ocIiACIiACDUNA4tswplJGRUAEREAEskJA4psVS6ocIiACIiACDUNA4tswplJGRUAEREAEskJA4psVS6ocIiACIiACDUNA4tswplJGRUAEREAEskJA4psVS6ocIiACIiACDUNA4tswplJGRUAEREAEskJA4psVS6ocIiACIiACDUNA4tswplJGRUAEREAEskJA4psVS6ocIiACIiACDUNA4tswplJGRUAEREAEskJA4psVS6ocIiACIiACDUNA4tswplJGRUAEREAEskJA4psVS6ocIiACIiACDUNA4tswplJGRUAEREAEskJA4psVS6ocIiACIiACDUNA4tswplJGRUAEREAEskJA4psVS6ocIiACIiACDUNA4tswplJGRUAEREAEskJA4psVS6ocIiACIiACDUNA4tswplJGRUAEREAEskJA4psVS6ocIiACIiACDUNA4tswplJGRUAEREAEskJA4psVS6ocIiACIiACDUNA4tswplJGRUAEREAEskJA4psVS6ocIiACIiACDUNA4tswplJGRUAEREAEskJA4psVS6ocIiACIiACDUNA4tswplJGRUAEREAEskJA4psVS6ocIiACIiACDUNA4tswplJGRUAEREAEskJA4psVS6ocIiACIiACDUNA4tswplJGRUAEREAEskJA4psVS6ocIiACIiACDUNA4tswplJGRUAEREAEskJA4psVS6ocIiACIiACDUNA4tswplJGRUAEREAEskJA4psVS6ocIiACIiACDUNA4tswplJGRUAEREAEskJAEgqWUgAAIABJREFU4psVS6ocIiACIiACDUNA4tswpqoso62trbZ02XJj353di7NftuF33WNHjnQeh42bNhsbbu269XZz79vCnv8fevjRsFVqA8KRd7nuS+DEiRO2fMVKO3DwYIBQzbq8aPFnRX8XpEUdlOs8AhLfImypfJde2SPvdkvv/rZ3774iobv2Ej+mOE8bN26ym3r1Cz/ers1J+9R2NTXZvfePsyv/fL1ddtU11qf/YPv08y/s9OnT7T120n/VbLAKZXHS5CfsvjHj7dix4xLfQpB0vmIC+/cfCL+XeW+/G8JWsy5LfCs2R9UDSHzLRFrNil9mkhV5S4pvRYE7yXNT027r23+IPfr4k9a8d68dPXrU5s5723pcf7MtWbqsk1JtH21X20093/b89V/1CFSzLkt8q2eXtDFJfMskV6jih57d6Afs8quvtR7X32TPz3jRGC7K5zg/++XXgj96gUPvuMu2bdsevNITpEfYq9/A0NNm/8WSrwWK9O9/4CF7etr00IskrTfmvhV6kMkeOj+sfCIw9Znn7IEHJ4a83nBzn5AeieN3wOBh7XryxBkPO5EXzxuCumbtunxFbHdu+gszQxlbWo7kzlPOyVOmhrKcPHkynC/FsNT19Rs2BpF3pg9PmpwbUkvajbzQU6UnzgbPY8eO5fLHAT3YUfeNbTfs+/gTT7XL8/sffGiDb7/TDh8+3G5oOR/3mGOcEPm+beDQMCJwXc9b7bU33rRTp04FL4QpZC88UG/uGDEq2PLqa260ac+9kKt3lPme0WPDdkufMyM0cH/rnfcMu8OJsHCNHX4mTHws1BG3zc6du8KIyudfLAl1rVQdjcvKyBCjMdRHHNceeWyKDRw6PGefOP1idRx/TKE8MfUZo7z83u4cea/taW4OUcD9tkG3Bw78Nrg+/qFHbPPmLaGslDmu8wQqpy7E+fNj0rw3+s0n7cbNJnw9zcWffh5+q3G+/DfhbQL2xz/1gXqBS/JL1mXPD/tibLhOnj1P/H6pz/F0TPI3hK3cls72yaemhd8M9ixVn6gnjLwxcsh+8adnwpCXYvU+LlPWjyW+ZVo4X8U/eOhQEJcpU58JlX/rtu3W57ZB9uz0GXmHVRFeKj7+aPCfe36m3T58ZGgEVq760nre0tc+WbgoNKIfzP/I+EFyHkf6iMWbb71jrUeP2rvvz7eet/a1LVu2huv8IOJh53wiQHz8KAg//YVZ1m/A0DCfhN9i4rt6zVrr1XegrVz1lR0/ftzeePOtEHb37j0F6bmAIQrFXCmGpa4zNEeDRWNy6NDhcCNBXr1hie1GQ4e4IM40Vjt3NQX74SfpOMfNDiKEwCK0CFlz897glfTYcMmGqpw5X8o1YMgdNmPW7MAUtjfe0scQOY+zkL3isJRpx46doV598OHHIazXlVdfmxsacAT9w48+CZyoe5T9mWefzzEKgdr+LFz8abC1l5P/qSf79u8PdbFUHfUGm+iS4sE1ykReDh48dNZvxPNdqI7T+CO42Jzfz8RJk3M3CtTha2+4Jfz2sBc3h/DkN+J1fsaslwID5lArqQsxH0STuuV2W7d+g/XuN8g+WbAoeKOM1D/yc+TIEZvy5NPhd8t5yrx5y9bQRjAChGNI2dsE7DTrpTm5NiHJDz5er+M8cVyMDay4WeBmhDxQXxBijwue/QfdHtiRZ/JOGdyW/M9o1djxE2zb9h3h5rRYfaKO8VuhDYMze+ywafMWi+subUmy3ifLleX/Jb5lWjdfxY8bJo+GxhMB9sbLz3sDTo/JHRUREdy5a1cQBXqE3FHi2PM/YsEx6bsYcD38MPv0z/VeyxHfWAj5QfED2bBxU9GeL2mThzhsKMuwEbm0vTzxngVO/LjJdzFXimE512koYt6xreJjytx3wBCjN+cOe4y4+75wQ+Ln2NMo0JNCdAjHTdKwO++2JUuXh8VbiAB5w9FIxQ1VOeKL/cjLsuUrQxyIPItr/GaK+GLmsb1o0Ggw2bvDP2KES9YVt0Vc92CAqGL/2FFezlM2r4PUQ4SBelCqjjoH4kyKR7JMcbocJ/Md13HygnDEC+eo89jebYS9vCeMf8SGjWMcDN02ldSFOJ9wGTxsRLgh8/PYydlTRoTZHTcB9PzikSL8OKfDLS3G5i62c5JfXJfdP/ty2MAJ8XPHzYKLb77fGGXwPCZZlapP+Gdtx/YdO0JyiD83QPxGS9V7z1932Et8y7RyvoqfbCyIisaTO2EqYOyodDQO8Y/Qr+erzFzj7th/IKTlPwauJX+Y5Ygvcbgjf3FDVKjn63nLt/CMNAs5D+dp+v8eT1yu+KaC+GKGpRhz3ePyvMTn4mPy6+nH+2R44qF3RCOLCGMHernERUOLcNETdhGPG9OYK/HE1zx/7BFb4mII9f6xD9pHHy8IPVL3QzjSc5eMlx4UvReGV70sXj8I58eE97ri/nxPbyZZT2nIEVg2BJ7eOTeUbr9YwIm7kjqaLJOXzfeF8u31LPQk24advQw+2kM5CtVhjz9mWEld8PDsyaOnHe+dd7KMcZoeD37cP8L00pxXw4iAx+d2cbt5+Uk7X10l3mJsCM8Nla+axj/nPC7iZZqF0Sp3sS2SbD1fnl/fe76pK0xvXXPDzfbQxEfD9JnfKJaq955+d9hLfMu0cr6Kz7mkcNCToEdJhY0dFbZS8Z3zymvtfiD+gyVe/wH4D5O9N0RcT/7oizUKyR8X4b2B8EbXh8niMhU75kcGGx+ajf3GLEsxLOe6NyKeRjJ+v56vEfIwyT0iRE+PuGhI6PEixKPuG2PzP/w4DON5Y+WsiCMf99huyXQYuoctIke98UeWitmLMIyuMIyaLw/kOU6TusINIWUoxyG25Ife0aChw0PP0utBUnwrqaPJMiXzki/fPmdMfaJ3yYgDi/dwcZ0vVoc9ndg2ldQFD8+ePCaFKr6eLGOcpvvDj9uH+LAlN1PUudh/8jeOX6/LHhf7UmzylZVzHle+MnHO85hkW059oiysS5j54pywVmTIsBGhzfJ8F6r3fr077CW+ZVo5X8XPN1xTybAzc2+fL1kahtM6OqQXN0QUKf4R83+xRgG/8ZCd+ycMP2zEh41jd/Gxn0vuWYjCfBbDgrGLWZZiWOo6w1nc1cdpxPHHx1+tXhMW3bB3x3AqDUU+h9AwNMzCOIbMGG6/a9R9occZDwnDKW6ofESBOONrcRrER97p+eDYj7zn/lxvl3Dk3V1sz2RjSP4ZXvU8EM6PCc88JWVgAZw7wlD2fI4eEuLLMLsPM+O/nDoaD/MmxSNZpmTayXzH4V38qefuuDnwG84kE/yQXswhZlhpXfA0mVfHvqwXcBfXoWQZ4zTdf5yvpH9Gxm7udeY58bj8hI3rssfFvhw2HR12jkcVStUnRq6YQvE2gt8m7QC2K1Xv43Jl/VjiW6aF81V85mxp1FhghZAyx0ElTbvgih81DTJDNB8vWGg33NS73YKruCFJ/jD50d7ad0AQXR7pSf7okz/y+Do/CH6cr7z2Rpj7ZHUmC2M8PR4LYkiJxSEnT50KqxWZA2UOiRWzTz87/ayVs2DlR8p8Ks/5chdML23L1m2h9+jPxZZiWOp6vFik1IIrBI6FJwzX7tnTHGyGrVisQrmSDkaUOx7doCd/xZ+ua9eLhJOzirkSX3wtjp9VuNgbpjTePtTuz3QSjjrnLo6XBS2EfX3uvHBDwAIlhq89D0kRIw4WyV3fs1e42aOs1DN6kdSjfI5ysvqWmx93LP4rVkfxyyIn6iI3KrAlDhfMZJk8Xt8n8x3XceoOdWbsuAmh5wsPGvS04luqLmAHt4Xnjz31jQV+3GQw1Ev9HD/hkbBSnevJMsZ283jw47ai7tGG0Haw8Xvx4du4/ITN1wZxvhQbLyt5Zt6c+sO0ifd8498QZVr15epgZ88jZYjFlzSL1SfaCxbm0bGgbq9YuSq0ZQhysXpPORiCp252ByfxLdPKhSo+4kMj5o8asYCKyp7PIar+qBH+EQJ/3IOeBcvxfXk+j/VQCTmPK9YwcZ27X3qnNHYMBSZ/9KUaBdK69sZbc49w0OvxH18ybzyywWpHzpOOL9zKV+bkXBTzQBMffdz27fu6N1yKYanr+R6T8IYlaTcEmkaIlePYgMY8zktcBl8kFw+5IzDcqHDD4g5Oziofd7/m/n2/fMWq0JBjs+RjaoQh7+6S8WIv7OBlwL/fJCTrCnHQCDISwU0Vc3QIF+kXcjxaxlB1XM5kPUjWUeo3j26RJ24GHnx4UshjNcSXfCYfl+G3Rh6Ye4dPUiBgErNPMixWFwjni6iSjOL6SD3ypx3wR7hidnM/ni9uUKmPMMOeL8x8KdxEM8VRrviWYpPvOjdX/hvher7fkOcxH9ti9Yl6QvvgbRnl4jE3zuMK1XvvwdN+dQcn8e0OVu7EMvr8YLyYoxOTyxu1D2/5RYaEveHwc9pXRgABYZjZG8zKQje2b26emQKIb7oau0SNkXuGp3nkqdy1CY1RqsK5lPgWZqMrJQgwfInQ+TOOJbx3ymUW3zCMTE+Q/NBjYOizlnnqlIJ2UaT0Plg0yNAqN1bd0TE0ylAyvVK5riPAMDXD8L4yuutSrk1KEt/acFeqVSQQD2MxrBq/caiKyXSLqBjyYwiU4ePu0gh2C8OqkHVHQOJbdyZRhkRABERABLJOQOKbdQurfCIgAiIgAnVHQOJbdyZRhkRABERABLJOQOKbdQurfCIgAiIgAnVHQOJbdyZRhkRABERABLJOQOKbdQurfCIgAiIgAnVHQOJbxCTJN8wU8apLRQj423N4s5K/7aiI9253Kd8bqToTAo9m8YYr7OHf1/X0eDlJZ7ygpKlpt3351eqGfmlHqTJ0tR3dZto3JgGJbxG7SXyLwCnzEu9r5SswfMCeV03q2dGzwXVlo81bhPgQBe9d5nWNfBw9fr1mZ4nvq6/NDR9r4F3IpVxn5aFUuqWux2XwVyFiO3ddaUdPU/vGJSDxLWI7iW8ROGVe8kZKPd7CwLqy0U6+3ziZq3oQvnrIQ5JL8n+v1xLfJBn9Xy4BiW8RUknxpdfGhxEYquNl+LyCjyFVHH55sbt/Ro/r4es5zc25FHz4lWt8yYTeoL/cPNkAJ9Pmq0lPtH1InDcQ8TEHei7uki+dxy8fPCAeHNf5kANheYl/obdA0TjzeUFeG4k//POCedLHkc97Ro8Nm8fPa/gmTX4ifKyAF83zdiTej+tl8I9t+xdoeF8wL1rnhevOyT8w4enzmjniQrTL8c9XVvxDA7yo3l8NSFhe8s61fB8UKJdLKHzbn2K2SFMPComNx8WnAJ3VyHtG53qqfp2vSmErbEN5edUmHxygvOz5SAIOlm4L9qSbFONkXsrl4/XCPxJAft59f35umJnrXtfJC1+54jeA/fHL76pp9+7wlSLPo9cX8ljsowmeNvWyVJ1sM2FuxwcG4ndY8z5nvvjDRzVwvK7UP97gZVix8svw5SHPp5eL63zcgvpP3aVcb8x9K8cgl6gORMDMJL5FqoGLh/fa+MQYc2V8kouvesx6aY7xaT0aeveL4PKtT945zJeB+HHj/FNk/F/o03c0fO48Pk8bMUJwiQdhQxD9G7v8j7Cy0Vju2LEzCL83XuSPBmLGrNl2/PhxW7d+Q/hiTb73H9PQXXvDLWFYkgaIGwa+4uPfgqWBoWFhCI48kjaNFzcSiBJlp1HFH857CF4OziGG3LjAkTDPPPt8rmEmfT6pNnb8hDAkyrB1Of5p9PlcGp85JL/+Uny+QsTnzWhEefczNgyN6a6mYLdyubhd2BezhdutWD3g5fEM+zIMT3nJb2x7T8vjomwMF8OWeN3ufp06yPuYYc1n/yjvJwsXhSH+D+Z/FG4WOY8jPT4LyD7f/7H4VlJvsDc3pXyOsvXoUeMzh/zv307muosUdZShb+ojN7QbN24KNuFbubg4D57HUuJbSZ0MibT9oX4MHjYiiC0f6EA8/ZN+eKEeMW1CPYzL4PXa6zl+OSYflB0G3Hz0vLVv+FxknKaORQACEt8i9cAbNxeOwy0txuaOBsw/p4dfPrxOI++OHyPf5+SHmO9TdPGPmeO4AY7TpjeDsPCDd0eeaLRplJMNKn647uIbNzAenp5tvk+mERc9XxpId/SSvTdAPv3TdVzHP+Xms27u+Ai9l9sbKWfo/+PHHWFpjBGQZHyV+idOOFI2b0wpqztuFma99HK4qaiEi4cvZYty6gFlxW7uEKHY9n6euLAF38d1x8cOsCvMkmmRt1IfvE/WleT/sfBVwod6wU0CecDBmS8DOfu4rmN7r09eLtLy7+fGeeA6eSwlvpXUSU+TfVz3+HwiN8x3jRodRNd5kndcXAavl37Nr8f5CL/hPv27zfdpAyT9KZuAxLcIqvDj6d0/t0KXBoWPPXNH70NOfpeMXxoIGgp38Y81Pi50PW6Ak2knv4tL+i6usdB63PE50vb8xvs4PQ+Xr6Gj8UcEyBNxxeFIJ47Tj72X442Ui6+Xy/353jkm06/UP+XwxtvTztfDx18lXJwP+2K2IL+l6oH3pDzOJFM/ny8uboqwBZyS17288Y0NcdF7c3sQrtyebyV88pUhvqnguueB41iovby+d/v5/8k6wfnYTzLtUnXS42XvCwJhxqfs7hszPoy08J3nAwcOhJEGv6GOy+CsOecumQ+vu1733Z/2IgABiW+RepD88fDj6nPbINu8ZWu4w48bsmRDSLTxjzU+9iTjcxzHohanTQ+OnhzDzgxn4/hBVyK+yQbf85Dc52voaHzo3ZKnZD7JBz25Qt/z9UbKGyDi4CPthb7ZmUy/Uv+UxxtmT7uY+JbLxTmVsgX57UzxpaeGLeCUTMvLmxRfvlTkwhfXWcqU/N/ZcQ1bl8snWS8IT6/X6zTXPQ8cd7b4FquTbkvfkx9+X+SXGxUY0wNmCJ291+24DM6ac+449vJyDvvwG/W67/60FwEISHyL1IPkj4cfVvxjo0d4c68z82fJhpBo4x8ri2CSw43xdY7jBilO23/o8Y8YQXHxZbgWQWO+0x1+/TpzafR2mDN0x5y1DxH6OfZJ8eNcPExIPuMGhjk9FgP53B7+47iTeWcekTlhn0PGP/kgDC6ZfqX+iYP8seUbdmaOcemy5cYQYyVcQuYKzGHHtihVDxheTdaDuIfo6bDPFxc3Qr4AKHndh0knT5masy3n+N8XFSXFNvm/syP9Svgk60WSfVzX4/rk5d24abOtXrM2/BvngRPkMTkVEvtJpl2qTnqavveby4FDh4e0yDs9X9ZQxMPIcRm8XnPOXTIf8W/Y/WgvAk5A4usk8uyTPx4W2iAc23fsCBvzmj5cmmwIiS7+sbJQyhfa5FtwRaPMR+ARdBY6sSCHlaCIKENjDIfRINDzpTFi4ZeLK8PhNBSIN89sJhdc+WIvrjNkyrOWfCycudykI25fcMViKBZF0dv3RibZwHjaYWX3nuawgIq8w4oFTt5IxTcOrEy+vmcv4+PZ+OHGhF49DEk/Ob9Xqf+4YYZroQVXxbjAnCkG8ha7UraopB5gi1Vfrg43RuQ56bz+YTdsRn7h5PPZ+dJiYRU3WuSbG42PFyy0G27qHRZiET98yx12LsYnmVfqBdMxni4LvUiX9HDxb6HUgituRph3pcyUgRsl1je88tobYf0EPVLScmaV1slk3omftRvxPDQ9YKZE2LuLy8BNDXZhlT91nJvHZD7cfnHd97i0FwGJb5E6kPzx0AvjB8fjN/T2Xpj5kt3ad0BYZJWvIYx/rCSTfNSIxsOH4mhkeESBuK++5kZ78OFJIQ3/4dJgIXAIMsI7/YVZuR4QcSevs6raxZnrPMpDw038rMicMvWZ3ONDMQIayz79B4frPCqBf+JCiHHJBoZz3EzAhXjxz02Cv7ghn/jSUCH8PndOeXjrEi6f+FbqPxZfGkl/1Ah2rGz1x8NIrxAXzzdDtkmXZB3bIm09cCGJ0yIuenw8NuaPGo0eOz7HNl9alHfxp5/ZTb36BfGgl4wgch5XifjivxCfOJ8cUy+oX9ieOnDtjbcG7p5u8rcQP2pE2Vgh7KMf9ILJNzeBjOrgKANxEjfpMBzszCqtk8m8ey/dn0zgepIT55JlWLJ0WciTL3xM5gP78Bv033AyXf3fvQlIfLvQ/vzIYxfPicXn0xzTcHlDR3iG9lzYK4kvn/hVEj4rflmNzEhFobnprihnPnHtinTTpJEUnjRxKIwIdCcCEt8usjbDxfRcuYNnqJV5JoaZCy0GqiRbPMrEsDS9B3rQyaHiSuKS+J6hxZA4Q+fwrJWT+NaKvNIVgc4nIPHtfMa5FBha5eUSDH8y5FroLVO5ABUcMIyHuDMsx7A1L65gPrZSJ/GtlFjn+Zf4dh5bxSwCtSYg8a21BZS+CIiACIhAtyMg8e12JleBRUAEREAEak1A4ltrCyh9ERABERCBbkdA4tvtTK4Ci4AIiIAI1JqAxLfWFlD6IiACIiAC3Y6AxLfbmVwFFgEREAERqDUBiW+tLZDx9HlOdvmKlbmX02e8uCqeCIiACJRFQOJbFiZ5SkuA9wPzukr/Viuv2otfe5k2XoUTAREQgUYmIPFtZOs1YN4lvg1oNGVZBESg6gQkviWQJt8cxfuY/ZWDvM/2ntFjcx9b4EMEb8x9K3wH1F+EH77209ycS6VQfP4if/+4vO/9/cy8u5nXR3q8fCBgY9tL54mcl8xPfeY5e+DBieEtV/jjVZbu+NCBv/Q++WGFUnFTXt6YRTjKyGsXe97aN/fC+GJpxy+Xx5+Xi72/cJ6X9/NVJt7ORfzPz3gxx9jz73veX+0fSiCO+KMM+CkWF2/v4kMF2NA/GsEHITZv3pL7aEWSm6ervQiIgAhUk4DEtwhNPmk2YMgdxifOECA+1Udjz3dOcYgvr4nkE2e8X5lPniFQfGqQb+fyPme+wOJfSykVX5wVvrzDp/D4JBzuvffnh8+e8a3S48ePhzzxLWHyhEPYyAuCS1740o5/UBxh5xNtD0+aHL5OtGfPmS8k+Td1S8XNJ/34Sg7vo+YLRvHnDkulHYsvfpM9X5jwmUb/ypK/l5o04g9FhEKaWbFPBJaKC/H1zyXy2UY+38j7tbmRcG4zZr0UXgHqH1D3dLUXAREQgWoSkPgWoYngMmfpPV28InJ8TxWH+NJzcpHgU3MIYvyxBPx477VUfJ4VF8tHHpsS0vZecfz9Xd7bPPKe+0MePF/06NwhNHyjlE+yxR9g9+sID9+rPXDgYMhfobg9bcrhLimoMCmUdtJvUnzzfVz+8y+WhG8I853V2Pmn3+K04DDrpZfDZwJLxeU9X+yEw27YL7YhfuLv3cbp61gEREAEqkVA4luC5OYtW3MfLPAhU8QGhyD5Mf8nhcb9uPjyf7H4uI6b/fJroYfd1LQ7/E+8fQcMCSJ6xseZv/SoPX32sUDGIoLg8f1TPt6edKXizlem5LliaSf9JsWXPN//wEMWf25xy5at1rvfoNyH2D3PfiMQ39z4Nfal4oLJgMHDgp08HHl3hpyLubkf7UVABESg2gQkvkWI7t69J/TAGIo8dux48Bk31pWKb6n4SIAeaTzczLlCAkkP3IWDfTXF1+NOiqfnJ/5IeLG0k+HLEV966/TaEcLYpRHfOC6Jb0xTxyIgArUkIPEtQj/ZWPswpQtepeJbKr6WliNhvvjRyU+06wm66BQaGqYIxQQw37AzvWqevz10+HDRYWfmj5nDjtNOCmqxtJN+k+Jbaqg4Nk++YWeG8pcuW24MUZeKK8nfubk9+R8/GnaOqetYBESgMwhIfItQZfEPDfHrc+cZC3RYbcy3cr2xrlR8i8WHsL8055WwSMrnJOOssSiqV7+BYW6TBVezX3419A7jBVeFer6Id6kFV8XiZsEV1xGmQguuCqWdFF969rf2HRDiOnr0qPkiKRZYtba22vYdO8LQsC+44hyLznwBFALLyAA3FCdPnQrPD5M3FriViqtS8UXYP/3sC9ux88yittgeOhYBERCBjhCQ+JagxypYHj/hMRge1UF4fY6yUvElqULxeQ/U55V97y+k4HEgep+saL7sqmuMR41YEe2uWO8TP/GjRjxmw2poFivhSsWNCMWPGrEyGSb0YnHF0k6KLzcCPA5FGea88loIz+NBrAr3R43ivHHDwkprFmHhuEnxR43ycSgWV6Xii5iz2v3V1+aGtPVHBERABKpFQOJbLZIZjgfBQ6Dd7dy5KywAQ8zkREAEREAEKicg8a2cWbcLQc9v/IRHwrAuw8A8Lxyv4O52QFRgERABEeggAYlvBwF2h+AI7hNTnwnz3QwNM0TM8K6cCIiACIhAOgIS33TcFEoEREAEREAEUhOQ+KZGp4AiIAIiIAIikI6AxDcdN4USAREQAREQgdQEJL6p0SmgCIiACIiACKQjIPFNx02hREAEREAERCA1AYlvanQKKAIiIAIiIALpCEh803FTKBEQAREQARFITUDimxqdAoqACIiACIhAOgIS33TcFEoEREAEREAEUhOQ+KZGp4AiIAIiIAIikI6AxDcdN4USAREQAREQgdQEJL6p0SmgCIiACIiACKQjIPFNx02hREAEREAERCA1AYlvanQKKAIiIAIiIALpCEh803FTKBEQAREQARFITUDimxqdAoqACIiACIhAOgIS33TcFEoEREAEREAEUhOQ+KZGp4AiIAIiIAIikI6AxDcdN4USAREQAREQgdQEJL6p0SmgCIiACIiACKQjIPFNx02hREAEREAERCA1AYlvanQKKAIiIAIiIALpCEh803FTKBEQAREQARFITUDimxqdAoqACIiACIhAOgIS33TcFEoEREAEREAEUhOQ+KZGp4AiIAIiIAIikI6AxDcdN4USAREQAREQgdQEJL6p0SmgCIiACIiACKQjIPFNx02hREAEREAERCA1AYlvanQKKAIiIAIiIALpCEh803FTKBEQAREQARFITUDimxrwH/SfAAAPs0lEQVSdAoqACIiACIhAOgIS33TcFEoEREAEREAEUhOQ+KZGp4AiIAIiIAIikI6AxDcdN4USAREQAREQgdQEJL6p0SmgCIiACIiACKQjIPFNx02hREAEREAERCA1AYlvanQKKAIiIAIiIALpCEh803FTKBEQAREQARFITUDimxqdAoqACIiACIhAOgIS33TcFEoEREAEREAEUhOQ+KZGp4AiIAIiIAIikI6AxDcdN4USAREQAREQgdQEJL6p0SmgCIiACIiACKQjIPFNx02hREAEREAERCA1AYlvanQKKAIiIAIiIALpCEh803FTKBEQAREQARFITUDimxqdAoqACIiACIhAOgIS33TcFEoEREAEREAEUhOQ+KZGp4AiIAIiIAIikI6AxDcdN4USAREQAREQgdQEaia+a9ZttNOnT6fOuAKKgAiIgAiIQCMSQPvQwGq4b1QaycZN2+zYseOVBpN/ERABERABEWhoAmgfGlgNV7H47mpqtr37DlQjbcUhAiIgAiIgAg1DAO1DA6vhKhbf1tajtmHjVg09V4O+4hABERABEWgIAgw5o31oYDVcxeJLoij/rqY91UhfcYiACIiACIhA3RNA86rV66WwqcSXgFu37woCrMVXdV9nlEEREAEREIGUBNA4hBfNq6ZLLb5kgrsAuuGMgzMRLSGupmkUlwiIgAiIQC0IoGVoGtqGxlWzx+vl6ZD4Egnj32SMFWAsweYZKG1ioDqgOqA6oDrQqHUALUPT0LZqzfG66Pq+w+LrEWkvAiIgAiIgAiJQHgGJb3mc5EsEREAEREAEqkZA4ls1lIpIBERABERABMojIPEtj5N8iYAIiIAIiEDVCEh8q4ZSEYmACIiACIhAeQQkvuVxki8REAEREAERqBoBiW/VUCoiERABERABESiPgMS3PE7yJQIiIAIiIAJVIyDxrRpKRSQCIiACIiAC5RGQ+JbHSb5EQAREQAREoGoEJL5VQ6mIREAEREAERKA8AhLf8jjJlwiIgAiIgAhUjYDEt2ooFZEIiIAIiIAIlEdA4lseJ/kSAREQAREQgaoRkPhWDaUiEgEREAEREIHyCEh8y+MkXyIgAiIgAiJQNQIS36qhVEQiIAIiIAIiUB4BiW95nORLBERABERABKpGQOJbNZSKSAREQAREQATKIyDxLY+TfImACIiACIhA1QhIfKuGUhGJgAiIgAiIQHkEJL7lcZIvERABERABEagaAYlv1VAqIhEQAREQAREoj4DEtzxO8iUCIiACIiACVSMg8a0aSkUkAiIgAiIgAuURqDvxPXXqlB04cMDYV8utXr3Gnpv+fIeiO3z4sB0/frxDcdRz4EWLFtnLL79ip0+frudsKm8iIAIRgQ0bNtiqVav0u42YNMphKvHdu3evXfCLC+0v/vKb7bZPPlmQutwj7x5lhF+/fr1dfvlVtn379oJxHTlyxAYOHGxr1qwt6Mcv7Nmzx/oPGGg7d+4K8ffsebMR3h1pJs/5Nd8fPXrU+vbrb2++OS+cQsjJb6XOy5gMt3fvPrt92B32v/767+wf/vGfbdgdw41zuHLTwiZwK4dJMn3+P3HypN018m777LPP813WORGoOYGlS5faoEGDbNOmTbm87N+/3+6880578803c+fyHeQLm89frc899dRT1rt379zWv39/mz17dt4b/5MnT9oTTzxhjz32WN7rtS5LtdNPsnFO2J960Ggutfh2pKHPB6mQMOXzW4n4Pjn1KZs9e06IJp/Q5juXL834XLmCGIfhOF8Z6U0PGjTEHn/8CTt27Ji1trbaY489bsOHjwiCWG5aHRVf8scd9JChw0I+knnX/yJQawL5BDSL4vvAAw9YU1NTEJRPPvkk3HC88sortcZf8/Rp97H3ypUrAxPY8P/BgwerOlLaVQWtuvgiZrf1H2h33HGnffOv/tquuPJq27WrKZSnpaUld/7a626w62/omRsOdmFCROiJsmcIlKHQb/3Hd0Kv8M4RI404XHwR1u99/4ehtzhz5qyzhl4Yvu7Vu4/t2LEzpJ9PaONzxfLu+WPvPX7vMa9bt94uuujiUF7KTR5x+cpLGrGj4txw40321erVudP00qc+9XRglUyLnjz+YXvuf59nDBfT2/3Pb38vly9Pg2v4oUf96GOTg5gXYkricO1324AgwrnM6EAE6oRAOeLLb37KlCnWt29fu/3222358uUh93FYesl33HGHTZgwIfgbNWqUbdmypS5KSe/uwQcfDDfhZIjeLT3bRx55xPjt08t79NFHQ9koE/7Z1q5da0OGDAl7wnFt6NChtm3bNlu2bJkNHz489KZjJrQF77//fhAyeD355JN26NAhe/zxx0N6dAxow8aMGWPPP//8We1rrYAx8sEICGV0R1k+/fTTwMXL4mIdM0Ow+X/y5MmBCX5ffPFFe/vtt41RBuL94osvQrSMeM6YMcNuu+22sDECgT2q5TpFfP/rBz8KDTg9ubvvvscQSRx7hldbWo6EYeXf/u6iouLLEPSf/nxN8EsYhOHVV18LIoHw3Xvf/aGXtmLFSrvk0svD0HIMBkEjDGFxsdC6v/gcx4Xy7uJLuLg3yg+CPH788SeGscjTxImTQvTsKT8ctmzZapTXhdHTp9I8NOFhu+KKq4z5G/6PXZwWQ8P0iJ9+elqoBO+8865xE8N8dLLnu3btOvvjxZcae35Qt9za215//Y0wrJ+Pqac5/sGHjBuZUo7hrnPOOSfvxjU5Eag2gVhAPe6450vDiPA+9NBDoef4+uuvh4aW32gcFvGlQf3ggw9sx44dNnbsWJs4cWJdDN0mxZf83XXXXfbCCy+EXh7CwTZ//nzbt29fTnxdJH34Hf+UiZv7l19+2RAdRtWefvppu+eee0KbwEgXYrNgwYJw8zFy5Eijh7148eIgYqRNGzx48OC6uiHPJ75r1qwJNx/Jsnj9cGabN28O/MaPHx9sTx3p06ePPfPMM9bc3Bx4Oh/qB+zhwM0NHGBTLZdafJNzvt4LRFwQKncuHtyF0Av9/PMzdxVcxx/X/Ziwcc938+YtoUe5cOGi0GvzOL3n6/ObSeFxf8RHb9kFjf89n7EfP1co73H+OPYycUzvkjllX4yF4PM/huzdu68tX77Ck8o77MxFRHXu3Dft/PMvCOL//PMzckO/cVqUAyHFP857wZQ/yQABRUjdzf/ww5B+Iabuj/S4gSjH5RNgCW855OQnDQEE1Of5kntEh0aS3t7nn59Zt7B79+7Qw6X3mxRfGmMaZtzChQuDP/zX2iG+ybIxDI3QupC4wJJX7/lyPGfOnNBjpY0YN25c3nlwOHjZEei4l801eoA7d+4MvUK4kBY9Xx/NqzUf0s8nvpSFMnOD4SwY2cCmlNeZJRkm44r5IL6MJqxevTp0driR8firwSG1+Baa8y0kYElxIPOlxBexWbZsuV1zzXX29//nn4KQUgkqEd/4RqAzxBex8qFh33Nj4gvH/AbBy0seCjnKy0KzAQMH2dix44LIxuJLuKXLltnFl1wWhp1Jj7TyiS/l9vz4npsM+OVj6nlKpufnC+1jAZbwFqKk89Ug4ALKnB+NKBvDxQyp0rh6Q5oUL8J5WPzg1wWIfMXXqpHPjsSBmMZzvrR17pLCwflYfOnJUi7KQy+Wsp5pQ78edoaNlz0O62mw94VcDHU//PDDQdTj67U+djtTTneUJWl3bix27dqVWnzjYWeGpGfOnBlGNz3Nju67THzT9HzjwnHHwWpcenSViG/c86WXeuONN+WGoYmfHiFDsoAudOOAP8TMhTMWKMKzSMl7o55nhrrL6fn6/C5Dx+4QbG5uENU4LYQTAWW4mUexYn/Jm5tp0561yZOneJR59zFT90B65fZ8PQyiK+F1Gtp3FoF8IhkLEkJMTyVulD0vcdik+NZbzzfujXr+2cdl9fOxgNLjZch00qRJYSiddpLRMW5OGF6lzYCDi2+y57t169ZcLw9//fr1swEDBuTmkT3NWu/zie+0adPa9eI9j0lmyf+TccV84McGN0ZPqFv0hqvlukx8yXClc77vvvteWFy0b9/+MAzL/Gkl4puc82UFIb1GFy/iRXhnzJgZeJYrvuTBRR3xZLEVc74YifnnF16YEY4pb6k5X/LAojTCIOBsCCdzuYhtnBaLSf7c41pbsmRJiP/V11633/z290GkPR5fuMVdMHPMX331VfDLTcK8eW9ZIaZeocqd83X/2otAVxGIBdTTjBtTpn4QHp/PYw0F85787uOwiC9zvswPMlTNnC/hfOrI467FHjFNK770clkYRQ+QIWicD8W/+uqrYSqMRVWIMcPYheZ8Ccf1ESNG1N2QM3lLCibnvCyII3ln7nru3LnhmJsNbI6L60u+uGLxnTVrlt13332h/sCR+d+6EN/knC9Dm4hXMQFDTOJV0D16XBsWUAHBe5b04OjdsUeI6L396799K+9qZx/STfb6AmWz8LKOeLUz5xEnH7ZlFTWrir3XWizvnj/iYN70p+edn+sxMxSMAMOAPaufcXF5fXU3aSQdAs5QM8/4sjKZ1czcheKSadF79xXeY8Y8YH/4wyVhiJsfHgu8/uZv/z7MQ/P/e++9H1Y7szKaOLkLLsSUtLjL02rnpHX0f70QiAXU85RsTOPVziwmeuutt8IwahyWhphriDSrXe+9994gUh5nLfcdEV/yTTnj3irtgK9opsyslKYHt3HjxjAk7dfiFcLE46us6/ERp3ziSzl9tTMLqBi6Z+46WT+S/yfjisWX9nDq1Km51c6sfGaEtFouVc83beL0zpgABxSrf6+86k+dvoqO3qc/55s2390lHHePes63u1i7+5YzOezcfUnkLzkjAP9/O3eQwiAQBAHw/88wv/B3YQKhbyKKDWrlNBB1YuXQmeDuhNAsx5pnV7yuEaiG7yx7mWUuM4nNkp7GdoYz7c0mFv+1xtcw3v+qMxHPJG2Hq/t/l+5gW0D4bvtM8M4kvK7rbwLePtq7RwWq4Xv0Q549b/Z2XpbP2cs8+vz5O7vxY+jRiG6OAAECOwVeEb47LRxGgAABAgQqAsK3wqwJAQIECBCIgPCNhYoAAQIECFQEhG+FWRMCBAgQIBAB4RsLFQECBAgQqAgI3wqzJgQIECBAIALCNxYqAgQIECBQERC+FWZNCBAgQIBABIRvLFQECBAgQKAiIHwrzJoQIECAAIEICN9YqAgQIECAQEVA+FaYNSFAgAABAhEQvrFQESBAgACBioDwrTBrQoAAAQIEIiB8Y6EiQIAAAQIVAeFbYdaEAAECBAhEQPjGQkWAAAECBCoCwrfCrAkBAgQIEIiA8I2FigABAgQIVASEb4VZEwIECBAgEAHhGwsVAQIECBCoCHwBSmXWIdw4lE0AAAAASUVORK5CYII=;" parent="1" vertex="1">
          <mxGeometry x="683" y="193.26499999999984" width="225.02" height="266.83" as="geometry" />
        </mxCell>
        <mxCell id="klSxirF_GQ1IDOV2wDru-22" value="" style="strokeWidth=2;html=1;shape=mxgraph.flowchart.annotation_2;align=left;labelPosition=right;pointerEvents=1;fontSize=15;fontColor=#000000;" parent="1" vertex="1">
          <mxGeometry x="633" y="216.67999999999984" width="50" height="220" as="geometry" />
        </mxCell>
        <mxCell id="klSxirF_GQ1IDOV2wDru-25" value="1" style="ellipse;whiteSpace=wrap;html=1;aspect=fixed;strokeWidth=2;fontFamily=Tahoma;spacingBottom=4;spacingRight=2;labelBackgroundColor=none;strokeColor=none;fillColor=#0000FF;fontColor=#FFFFFF;" parent="1" vertex="1">
          <mxGeometry x="100" y="304.83" width="20" height="20" as="geometry" />
        </mxCell>
        <mxCell id="klSxirF_GQ1IDOV2wDru-26" value="2" style="ellipse;whiteSpace=wrap;html=1;aspect=fixed;strokeWidth=2;fontFamily=Tahoma;spacingBottom=4;spacingRight=2;labelBackgroundColor=none;strokeColor=none;fillColor=#0000FF;fontColor=#FFFFFF;" parent="1" vertex="1">
          <mxGeometry x="283" y="393.83" width="20" height="20" as="geometry" />
        </mxCell>
        <mxCell id="klSxirF_GQ1IDOV2wDru-27" value="3" style="ellipse;whiteSpace=wrap;html=1;aspect=fixed;strokeWidth=2;fontFamily=Tahoma;spacingBottom=4;spacingRight=2;labelBackgroundColor=none;strokeColor=none;fillColor=#0000FF;fontColor=#FFFFFF;" parent="1" vertex="1">
          <mxGeometry x="310.5" y="557.83" width="20" height="20" as="geometry" />
        </mxCell>
        <mxCell id="klSxirF_GQ1IDOV2wDru-28" value="4" style="ellipse;whiteSpace=wrap;html=1;aspect=fixed;strokeWidth=2;fontFamily=Tahoma;spacingBottom=4;spacingRight=2;labelBackgroundColor=none;strokeColor=none;fillColor=#0000FF;fontColor=#FFFFFF;" parent="1" vertex="1">
          <mxGeometry x="598" y="517.8299999999999" width="20" height="20" as="geometry" />
        </mxCell>
        <mxCell id="klSxirF_GQ1IDOV2wDru-29" value="5" style="ellipse;whiteSpace=wrap;html=1;aspect=fixed;strokeWidth=2;fontFamily=Tahoma;spacingBottom=4;spacingRight=2;labelBackgroundColor=none;strokeColor=none;fillColor=#0000FF;fontColor=#FFFFFF;" parent="1" vertex="1">
          <mxGeometry x="525.75" y="303" width="20" height="20" as="geometry" />
        </mxCell>
        <mxCell id="klSxirF_GQ1IDOV2wDru-37" style="edgeStyle=orthogonalEdgeStyle;rounded=0;jumpSize=6;orthogonalLoop=1;jettySize=auto;html=1;startArrow=none;startFill=0;endArrow=classicThin;endFill=1;strokeColor=#B3B3B3;strokeWidth=2;fontSize=12;fontColor=#FFFFFF;" parent="1" source="klSxirF_GQ1IDOV2wDru-30" target="klSxirF_GQ1IDOV2wDru-12" edge="1">
          <mxGeometry relative="1" as="geometry">
            <Array as="points">
              <mxPoint x="513" y="106" />
              <mxPoint x="513" y="550" />
            </Array>
          </mxGeometry>
        </mxCell>
        <mxCell id="klSxirF_GQ1IDOV2wDru-57" value="&lt;font color=&quot;#000000&quot; style=&quot;font-size: 14px;&quot;&gt;get securty token&lt;/font&gt;" style="edgeLabel;html=1;align=center;verticalAlign=bottom;resizable=0;points=[];fontSize=14;fontColor=#FFFFFF;fontStyle=2" parent="klSxirF_GQ1IDOV2wDru-37" vertex="1" connectable="0">
          <mxGeometry x="-0.2453" relative="1" as="geometry">
            <mxPoint x="-113" y="-57" as="offset" />
          </mxGeometry>
        </mxCell>
        <mxCell id="klSxirF_GQ1IDOV2wDru-41" value="&lt;font color=&quot;#000000&quot; style=&quot;font-size: 14px&quot;&gt;Callback and &lt;br&gt;set Session cookie&lt;/font&gt;" style="edgeStyle=orthogonalEdgeStyle;rounded=0;jumpSize=6;orthogonalLoop=1;jettySize=auto;html=1;startArrow=none;startFill=0;endArrow=classicThin;endFill=1;strokeColor=#B3B3B3;strokeWidth=2;fontSize=12;fontColor=#FFFFFF;fontStyle=2;verticalAlign=middle;" parent="1" source="klSxirF_GQ1IDOV2wDru-30" target="klSxirF_GQ1IDOV2wDru-2" edge="1">
          <mxGeometry x="-0.5038" y="-6" relative="1" as="geometry">
            <mxPoint x="82" y="270" as="targetPoint" />
            <Array as="points">
              <mxPoint x="82" y="106" />
            </Array>
            <mxPoint as="offset" />
          </mxGeometry>
        </mxCell>
        <mxCell id="klSxirF_GQ1IDOV2wDru-30" value="&lt;font color=&quot;#000000&quot; style=&quot;font-size: 14px&quot;&gt;createSession&lt;/font&gt;" style="outlineConnect=0;dashed=0;verticalLabelPosition=bottom;verticalAlign=top;align=center;html=1;shape=mxgraph.aws3.lambda_function;fillColor=#F58534;gradientColor=none;labelBackgroundColor=none;strokeColor=#000000;fontSize=15;fontColor=#FFFFFF;" parent="1" vertex="1">
          <mxGeometry x="237" y="70" width="69" height="72" as="geometry" />
        </mxCell>
        <mxCell id="klSxirF_GQ1IDOV2wDru-39" value="6" style="ellipse;whiteSpace=wrap;html=1;aspect=fixed;strokeWidth=2;fontFamily=Tahoma;spacingBottom=4;spacingRight=2;labelBackgroundColor=none;strokeColor=none;fillColor=#0000FF;fontColor=#FFFFFF;labelPosition=center;verticalLabelPosition=middle;align=center;verticalAlign=middle;" parent="1" vertex="1">
          <mxGeometry x="283" y="263" width="20" height="20" as="geometry" />
        </mxCell>
        <mxCell id="klSxirF_GQ1IDOV2wDru-54" value="7" style="ellipse;whiteSpace=wrap;html=1;aspect=fixed;strokeWidth=2;fontFamily=Tahoma;spacingBottom=4;spacingRight=2;labelBackgroundColor=none;strokeColor=none;fillColor=#0000FF;fontColor=#FFFFFF;labelPosition=center;verticalLabelPosition=middle;align=center;verticalAlign=middle;" parent="1" vertex="1">
          <mxGeometry x="310.5" y="80" width="20" height="20" as="geometry" />
        </mxCell>
        <mxCell id="klSxirF_GQ1IDOV2wDru-58" value="8" style="ellipse;whiteSpace=wrap;html=1;aspect=fixed;strokeWidth=2;fontFamily=Tahoma;spacingBottom=4;spacingRight=2;labelBackgroundColor=none;strokeColor=none;fillColor=#0000FF;fontColor=#FFFFFF;labelPosition=center;verticalLabelPosition=middle;align=center;verticalAlign=middle;" parent="1" vertex="1">
          <mxGeometry x="213" y="80" width="20" height="20" as="geometry" />
        </mxCell>
        <mxCell id="qfu26_mKFhAoYLxfDz6c-81" value="" style="line;strokeWidth=2;html=1;fontSize=14;" vertex="1" parent="1">
          <mxGeometry x="40" y="50" width="1060" height="10" as="geometry" />
        </mxCell>
      </root>
    </mxGraphModel>
  </diagram>
</mxfile>
